<svg width="21" height="19" viewBox="0 0 21 19" fill="none" xmlns="http://www.w3.org/2000/svg">
<g id="&#208;&#156;&#208;&#176;&#208;&#184;&#208;&#187;">
<path id="Vector" d="M19.1543 0.172424H1.8457C0.825932 0.172424 0 1.21473 0 2.48728V16.3764C0 17.6565 0.832002 18.6913 1.8457 18.6913H19.1543C20.1655 18.6913 21 17.6609 21 16.3764V2.48728C21 1.21699 20.1773 0.172424 19.1543 0.172424ZM18.8958 1.71566C18.5187 2.18609 12.0292 10.2823 11.8051 10.5619C11.4565 10.9991 10.993 11.2399 10.5 11.2399C10.007 11.2399 9.54352 10.9991 9.19373 10.5604C9.04304 10.3724 2.62512 2.36557 2.10418 1.71566H18.8958ZM1.23047 16.0623V2.80236L6.54765 9.43596L1.23047 16.0623ZM2.10496 17.148L7.42005 10.5243L8.32482 11.6531C8.90585 12.3818 9.67833 12.7831 10.5 12.7831C11.3217 12.7831 12.0942 12.3818 12.674 11.6545L13.5799 10.5243L18.895 17.148H2.10496ZM19.7695 16.0623L14.4523 9.43596L19.7695 2.80236V16.0623Z" fill="white"/>
</g>
</svg>
