<svg width="27" height="27" viewBox="0 0 27 27" fill="none" xmlns="http://www.w3.org/2000/svg">
<g id="&#208;&#162;&#208;&#181;&#208;&#187;">
<path id="Vector" d="M4.62261 6.73547L7.58968 10.526V10.5826C7.76085 10.7806 7.87497 10.9786 7.93203 11.2049C7.98909 11.4312 8.01762 11.6858 7.96056 11.9403C7.93203 12.1949 7.84644 12.4212 7.70379 12.6475V12.7041C7.56115 12.9021 7.38997 13.0718 7.19026 13.2133H7.13321L5.6782 14.2882C5.59261 14.4862 5.4785 14.9388 5.87791 15.5046C6.50556 16.4098 7.21879 17.2584 7.98909 18.0221C8.75939 18.7859 9.61527 19.4931 10.5282 20.1437C11.0988 20.5397 11.5553 20.4266 11.755 20.3417L12.8391 18.8708C12.9817 18.6727 13.1815 18.503 13.3812 18.3616C13.5809 18.2201 13.8376 18.1636 14.0944 18.107C14.3512 18.0787 14.5794 18.107 14.8076 18.1353H14.8362C15.0644 18.2201 15.2641 18.3333 15.4638 18.4747L19.2868 21.4166L19.3438 21.4732C19.5435 21.6429 19.6862 21.8126 19.8003 22.0389C19.9144 22.2652 20 22.5481 20 22.8027C20 23.0856 19.9715 23.3402 19.8574 23.5947C19.7432 23.8493 19.6006 24.0756 19.4009 24.2736C19.1441 24.4999 18.8588 24.7262 18.4879 24.9525H18.4309C18.0885 25.1788 17.6606 25.3768 17.1756 25.5466C15.0644 26.2255 12.8391 26.1123 10.6709 25.4051C8.3885 24.6414 6.22026 23.2553 4.4229 21.4732C2.62555 19.6911 1.37025 17.4847 0.599955 15.2217C-0.113282 13.1001 -0.2274 10.8654 0.457308 8.77216C0.628484 8.26299 0.828191 7.83868 1.05643 7.49923C1.28466 7.13149 1.5129 6.84862 1.74113 6.59403C1.94084 6.39602 2.16908 6.2263 2.39731 6.14144H2.45437C2.71114 6 2.93937 6 3.19614 6C3.48143 6 3.7382 6.08486 3.99496 6.19801H4.02349L4.59408 6.70718L4.62261 6.73547ZM6.36291 11.4595L3.39584 7.66895C3.39584 7.66895 3.33878 7.61238 3.31026 7.58409C3.31026 7.58409 3.22467 7.52752 3.16761 7.52752C3.11055 7.52752 3.08202 7.52752 3.05349 7.52752C3.05349 7.52752 2.9679 7.58409 2.93937 7.61238C2.7682 7.7821 2.59702 8.0084 2.45437 8.26299C2.28319 8.54586 2.14055 8.85702 1.9979 9.22476C1.39878 10.9786 1.5129 12.8738 2.14055 14.7125C2.82525 16.7209 4.10908 18.6727 5.73526 20.3134C7.36144 21.9541 9.32998 23.1987 11.3841 23.8776C13.2385 24.4999 15.15 24.6131 16.9188 24.0191C17.2897 23.9059 17.6035 23.7645 17.8603 23.5947H17.8888C18.1456 23.425 18.3738 23.2553 18.545 23.0856C18.5735 23.0573 18.6021 23.0007 18.6306 22.9724C18.6306 22.9441 18.6306 22.8876 18.6306 22.831C18.6306 22.7744 18.6306 22.7178 18.6021 22.6895C18.6021 22.6613 18.5735 22.633 18.545 22.6047H18.5165L14.6935 19.6345C14.6935 19.6345 14.6365 19.5779 14.5794 19.5779C14.5794 19.5779 14.4938 19.5779 14.4653 19.5779C14.4653 19.5779 14.3797 19.5779 14.3226 19.6345C14.2941 19.6345 14.2656 19.6911 14.237 19.7194L13.0673 21.3035C13.0673 21.3035 12.9247 21.4732 12.8106 21.5298C12.8106 21.5298 11.4412 22.4915 9.78645 21.3318C8.78792 20.6529 7.87497 19.8891 7.04762 19.0688C6.22026 18.2484 5.44997 17.3149 4.73673 16.3532C3.56702 14.7125 4.53702 13.3547 4.53702 13.3547C4.53702 13.3547 4.65114 13.185 4.73673 13.1284L6.30585 11.9969H6.36291C6.36291 11.9969 6.41997 11.9121 6.4485 11.8838C6.4485 11.8838 6.47703 11.7706 6.50556 11.7423C6.50556 11.6858 6.50556 11.6575 6.50556 11.6009C6.50556 11.5726 6.50556 11.5443 6.47703 11.516L6.36291 11.4595Z" fill="white"/>
</g>
</svg>
