<svg width="21" height="21" viewBox="0 0 21 21" fill="none" xmlns="http://www.w3.org/2000/svg">
<g id="&#208;&#162;&#208;&#181;&#208;&#187;&#208;&#181;&#208;&#179;&#208;&#176;">
<path id="Vector" d="M19.0774 1.52626C18.8584 1.3863 18.6072 1.3125 18.3509 1.3125C18.0946 1.3125 17.8579 1.38238 17.6443 1.51428L0.610491 11.9975C0.191776 12.256 -0.0398659 12.7279 0.00565908 13.2288C0.0513753 13.7303 0.365077 14.1504 0.824343 14.3253L5.50519 16.1046L8.36045 20.4983C8.54982 20.788 8.85242 20.9698 9.1908 20.9967C9.21911 20.9988 9.24799 21 9.27688 21C9.58752 21 9.8754 20.8703 10.087 20.6349L11.9542 18.5576L16.5798 20.3154C16.7321 20.3735 16.8906 20.4029 17.0511 20.4029C17.3053 20.4029 17.5544 20.3281 17.7713 20.1866C18.13 19.9526 18.3557 19.5689 18.3907 19.1339L19.7224 2.84491C19.7658 2.31336 19.5185 1.80812 19.077 1.52626H19.0774ZM16.1313 7.32769C16.2885 7.09666 16.356 6.8195 16.3216 6.54726C16.2871 6.27501 16.1527 6.02494 15.943 5.84278C15.7445 5.67044 15.4958 5.57544 15.2424 5.57544C14.9604 5.57544 14.6915 5.68988 14.4851 5.89774L5.79632 14.6435L1.65871 13.0706L18.282 2.84L16.9696 18.8919L10.0502 16.2624L16.1311 7.32769H16.1313ZM8.21832 16.7212L8.29809 17.746L6.90097 15.5958L12.7798 9.67841L8.34227 16.1988C8.33826 16.2047 8.33443 16.2108 8.33061 16.2169C8.32372 16.2275 8.3176 16.2377 8.31186 16.2477C8.30918 16.2524 8.30651 16.2571 8.30421 16.2617C8.28489 16.2968 8.2694 16.3309 8.25658 16.3665C8.21584 16.4795 8.20283 16.6016 8.21852 16.7212H8.21832ZM9.73633 17.7146L10.4982 18.0041L9.81782 18.7612L9.73633 17.7146Z" fill="white"/>
</g>
</svg>
