<svg width="19" height="20" viewBox="0 0 19 20" fill="none" xmlns="http://www.w3.org/2000/svg">
<g id="&#208;&#146;&#208;&#190;&#209;&#130;&#209;&#129;&#208;&#176;&#208;&#191;" clip-path="url(#clip0_403_13)">
<path id="Vector" d="M9.5568 0C4.35239 0 0.113602 4.44444 0.113602 9.91797C0.113602 11.5809 0.525411 13.2364 1.29933 14.7054L1.33483 14.7726L0 20.0075L5.00561 18.5981L5.06951 18.6353C6.44694 19.4183 8.00187 19.8359 9.5568 19.8359C14.7612 19.8359 19 15.3915 19 9.91797C19 4.44444 14.7612 0 9.5568 0ZM2.91106 14.5414L2.74776 14.258C1.98804 12.9456 1.58333 11.4392 1.58333 9.91051C1.57623 5.29456 5.15471 1.53617 9.5568 1.53617C13.9589 1.53617 17.5374 5.29456 17.5374 9.91797C17.5374 14.5414 13.9589 18.2998 9.5568 18.2998C8.12967 18.2998 6.72384 17.8896 5.48132 17.1141L5.21861 16.95L2.06614 17.8374L2.90396 14.5488L2.91106 14.5414Z" fill="white"/>
<path id="Vector_2" d="M13.1353 11.3199C12.7376 11.0738 12.2264 10.7905 11.7578 10.9918C11.4028 11.1484 11.1685 11.7301 10.9413 12.0358C10.8206 12.1924 10.6786 12.2148 10.5011 12.1402C9.15917 11.5809 8.12965 10.6339 7.39123 9.33633C7.26343 9.13498 7.28473 8.97838 7.44093 8.79196C7.66814 8.51604 7.94504 8.20284 8.00895 7.82999C8.07285 7.45713 7.90244 7.01716 7.75334 6.68905C7.56874 6.26399 7.35573 5.65996 6.95102 5.42134C6.58182 5.19762 6.0919 5.32439 5.7582 5.60776C5.18309 6.09993 4.90618 6.86056 4.92038 7.62119C4.92038 7.83744 4.94878 8.0537 4.99848 8.2625C5.11208 8.76213 5.33219 9.23193 5.58069 9.67935C5.7653 10.0149 5.9712 10.343 6.19131 10.6562C6.90842 11.6779 7.80304 12.5727 8.83966 13.2364C9.35797 13.572 9.91179 13.8628 10.4869 14.0641C11.133 14.2879 11.7081 14.519 12.411 14.3848C13.1424 14.2357 13.8666 13.7659 14.1506 13.0201C14.2358 12.8039 14.2784 12.5578 14.2287 12.3266C14.1293 11.8494 13.5116 11.566 13.1424 11.3348L13.1353 11.3199Z" fill="white"/>
</g>
<defs>
<clipPath id="clip0_403_13">
<rect width="19" height="20" fill="white"/>
</clipPath>
</defs>
</svg>
