<svg xmlns="http://www.w3.org/2000/svg" xml:space="preserve" viewBox="0 0 180 166"><path d="M120 167H1V1h180v166h-61m-24.113-26.38c5.929-3.924 9.167-9.365 9.607-16.526.318-5.169 1.125-10.314 1.294-15.484.335-10.23 1.092-20.255-5.588-29.588-7.876-11.002-26.016-15.761-37.604-11.161-8.546 3.392-16.967 7.188-25.706 9.983-8.606 2.752-15.34 11.11-13.907 23.047.693 5.781 10.59 14.659 17.721 16.152 8.753 1.834 15.869 6.42 21.483 13.459 10.179 12.762 19.085 17.133 32.7 10.117m5.006-72.004c6.66-1.512 12.684-4.561 16.208-10.391 9.65-15.964 4.1-26.412-10.132-30.695-14.084-4.239-26.596 8.007-27.892 21.62-.993 10.438 6.477 20.296 21.816 19.466m12.09 21.859c1.74 1.17 3.33 2.88 5.247 3.419 10.63 2.983 19.35.04 26.209-8.762 6.427-8.247 4.793-22.246-7.132-26.08-10.696-3.438-19.652.384-25.749 8.115-6.004 7.614-5.68 18.176 1.425 23.308m1.12 37.133c8.556 5.007 17.13 4.728 25.183-.768 7.072-4.827 11.807-14.992 4.109-23.71-5.048-5.714-12.109-6.89-19.607-5.15-7.068 1.638-11.924 5.908-14.726 12.39-2.855 6.603-.15 11.975 5.041 17.238m-71.12-87.769c-.327 3.725-1.24 7.513-.844 11.16.614 5.64 7.147 12.963 14.006 13.232 11.45.45 18.898-7.472 20.641-17.285 1.704-9.595-5.037-19.825-16.15-19.897-8.475-.054-13.578 5.274-17.653 12.79z"/><path fill="#FFD400" d="M95.542 140.794c-13.27 6.84-22.176 2.47-32.355-10.292-5.614-7.04-12.73-11.625-21.483-13.459-7.131-1.493-17.028-10.371-17.721-16.152-1.432-11.937 5.301-20.295 13.907-23.047 8.74-2.795 17.16-6.59 25.706-9.983 11.588-4.6 29.728.159 37.604 11.161 6.68 9.333 5.923 19.358 5.588 29.588-.169 5.17-.976 10.315-1.294 15.484-.44 7.161-3.678 12.602-9.952 16.7zm4.959-72.009c-14.947.66-22.417-9.198-21.424-19.635 1.296-13.614 13.808-25.86 27.892-21.621 14.232 4.283 19.782 14.731 10.132 30.695-3.524 5.83-9.548 8.879-16.6 10.561zm12.204 21.428c-6.828-4.87-7.151-15.433-1.147-23.047 6.097-7.731 15.053-11.553 25.749-8.115 11.925 3.834 13.559 17.833 7.132 26.08-6.86 8.802-15.578 11.745-26.209 8.762-1.918-.539-3.506-2.25-5.525-3.68zm1.137 37.117c-4.93-4.986-7.635-10.358-4.78-16.962 2.802-6.481 7.658-10.751 14.726-12.39 7.498-1.738 14.56-.563 19.607 5.152 7.698 8.717 2.963 18.882-4.109 23.709-8.053 5.496-16.627 5.775-25.444.491zm-70.837-87.9c4.053-7.108 9.156-12.436 17.631-12.382 11.113.072 17.854 10.302 16.15 19.897-1.743 9.813-9.191 17.734-20.641 17.285-6.859-.27-13.392-7.592-14.006-13.233-.397-3.646.517-7.434.866-11.567z"/></svg>