<svg width="74" height="70" viewBox="0 0 74 70" fill="none" xmlns="http://www.w3.org/2000/svg">
<g id="&#208;&#155;&#208;&#190;&#208;&#179;&#208;&#190;" clip-path="url(#clip0_105_2)">
<path id="Vector" d="M70.7342 57.4876C70.3131 57.1343 69.8451 56.8394 69.3451 56.6078C69.2048 56.5445 69.0644 56.486 68.924 56.4348C68.8747 56.4177 68.8279 56.4031 68.7787 56.386C68.6851 56.3544 68.589 56.3202 68.493 56.2934C68.4339 56.2764 68.3748 56.2642 68.3181 56.2496C68.2319 56.2276 68.1457 56.2057 68.057 56.1862C67.993 56.1716 67.929 56.1618 67.8649 56.1521C67.7812 56.1375 67.6975 56.1204 67.6137 56.1082C67.5472 56.0985 67.4807 56.0911 67.4118 56.0838C67.3305 56.0741 67.2492 56.0643 67.1655 56.057C67.0965 56.0522 67.0276 56.0473 66.9586 56.0448C66.8773 56.04 66.7985 56.0351 66.7172 56.0351C66.6458 56.0351 66.5744 56.0351 66.503 56.0351C66.4241 56.0351 66.3453 56.0351 66.2641 56.0375C66.1926 56.0375 66.1188 56.0424 66.0473 56.0473C65.9685 56.0522 65.8897 56.0546 65.8134 56.0619C65.7395 56.0668 65.6656 56.0741 65.5917 56.0814C65.5153 56.0887 65.439 56.096 65.3626 56.1058C65.2863 56.1155 65.2124 56.1228 65.1361 56.135C65.0622 56.1448 64.9858 56.157 64.9119 56.1667C64.8356 56.1789 64.7592 56.1911 64.6829 56.2033C64.6115 56.2154 64.5376 56.2301 64.4661 56.2423C64.3873 56.2569 64.3085 56.2715 64.2322 56.2886C64.1632 56.3032 64.0943 56.3178 64.0278 56.3324C63.9465 56.3495 63.8652 56.369 63.7839 56.3885C63.7199 56.4031 63.6583 56.4202 63.5943 56.4348C63.5081 56.4567 63.4244 56.4762 63.3382 56.5006C63.284 56.5152 63.2298 56.5298 63.1731 56.5445C63.082 56.5688 62.9884 56.5956 62.8973 56.62C62.8579 56.6322 62.8185 56.6444 62.7791 56.6541C62.6732 56.6858 62.5697 56.7151 62.4638 56.7467C64.407 53.3835 65.4217 49.484 65.3257 45.336C65.0277 32.5604 54.6269 22.5803 42.246 22.3097C29.3946 22.0295 18.9692 32.6189 18.9692 45.3384C18.9692 54.2803 24.1215 62.0329 31.6506 65.8495C34.8277 67.4605 38.4309 68.3671 42.246 68.3671C44.5561 68.3671 46.7851 68.0332 48.8933 67.4117H48.9007C49.11 67.3581 49.3169 67.2996 49.5238 67.2387C49.5928 67.2168 49.6642 67.1948 49.7331 67.1729C49.8834 67.1266 50.0336 67.0779 50.1838 67.0242C50.2503 67.0023 50.3144 66.9804 50.3784 66.956C50.5853 66.8829 50.7922 66.8049 50.9966 66.722C51.2774 66.6099 51.5508 66.4881 51.8241 66.3638C51.9374 66.3126 52.0483 66.2565 52.1615 66.2029C52.3093 66.1322 52.4571 66.0591 52.6049 65.9836C52.7526 65.908 52.898 65.83 53.0433 65.752C53.1369 65.7009 53.2304 65.6497 53.3216 65.5985C53.4989 65.501 53.6738 65.4011 53.8486 65.3012C54.0629 65.1793 54.2722 65.055 54.4816 64.9258C55.2894 64.4335 56.0775 63.9095 56.8706 63.3856C57.1785 63.1833 57.4863 62.9785 57.7991 62.7763C59.8901 61.4139 61.5747 59.6494 64.1263 59.0815C65.9365 58.6794 67.8649 58.9377 69.5742 59.6518C70.4263 60.0077 71.2292 60.4732 71.973 61.0166C72.3548 61.2969 72.7242 61.5967 73.074 61.9135C73.367 62.1767 73.6823 62.6057 74.0025 62.7836C73.2537 60.9094 72.3154 58.8208 70.7342 57.4876Z" fill="#FFD400"/>
<path id="Vector_2" d="M21.5946 55.9742L25.2643 53.6735L22.8482 52.1088L21.2917 53.8002L21.5946 55.9742Z" fill="white"/>
<path id="Vector_3" d="M42.246 23.6892C54.3092 23.6892 64.1238 33.4012 64.1238 45.3384C64.1238 50.3492 62.353 55.2357 59.1389 59.0962C54.9643 64.1118 48.8071 66.9877 42.246 66.9877C38.7831 66.9877 35.3376 66.1688 32.286 64.6212C24.9318 60.8923 20.3632 53.5053 20.3632 45.3384C20.3632 33.4012 30.1803 23.6892 42.2435 23.6892M42.2435 22.3097C29.3897 22.3097 18.9667 32.6189 18.9667 45.3384C18.9667 54.2803 24.1191 62.0329 31.6481 65.8495C34.8253 67.4605 38.4285 68.3671 42.2435 68.3671C49.477 68.3671 55.9446 65.0989 60.2127 59.9735C63.5253 55.9961 65.5153 50.8976 65.5153 45.3384C65.5153 32.6189 55.0949 22.3097 42.2435 22.3097Z" fill="white"/>
<g id="Group">
<path id="Vector_4" d="M49.6617 10.838H33.4337V21.7833H49.6617V10.838Z" fill="#DC1625"/>
<path id="Vector_5" d="M49.1667 11.3255V21.2959H33.9238V11.3255H49.1667ZM50.1518 10.3506H32.9387V22.2707H50.1518V10.3506Z" fill="white"/>
</g>
<path id="Vector_6" d="M57.0381 57.9556C56.1342 59.4105 55.1195 60.6584 54.0136 61.8404L53.5088 62.6178L53.1147 62.6861C49.6371 66.0567 45.8196 67.3191 41.182 67.3191C39.1575 67.3191 37.6256 67.0535 35.7759 66.3418C34.4706 65.8446 33.1801 65.6545 31.9905 64.8478L31.0743 56.0814L30.8058 49.8886L32.0397 27.8713L51.9497 27.786L52.0162 28.1662L54.1639 40.3739L55.2968 46.7983L57.0381 57.9556Z" fill="#DC032E"/>
<path id="Vector_7" d="M52.9571 36.8669L36.7537 53.9294L34.3992 49.2232L34.1824 44.3514L51.2306 27.262L52.9571 36.8669Z" fill="white"/>
<path id="Vector_8" d="M56.9346 57.4389C56.117 58.7477 55.1934 59.9589 54.1762 61.0435L53.4595 61.777L53.4152 61.8185C50.2109 64.9283 46.2014 66.8829 41.8026 67.1388C39.8816 67.2509 38.9703 67.2777 37.1921 66.7635L54.6885 47.622L56.9322 57.4365L56.9346 57.4389Z" fill="white"/>
<path id="Vector_9" d="M52.1886 27.0305L52.0975 26.5065H29.668L31.3058 64.3726L31.3772 64.4213C32.584 65.2402 33.8573 65.908 35.1627 66.4052C37.0616 67.1339 39.0467 67.5043 41.0588 67.5043C45.6004 67.5043 49.9302 65.635 53.5802 62.0987L54.4126 61.2482C55.5209 60.0613 56.548 58.716 57.4592 57.2488L57.4937 57.1927L52.1837 27.0305H52.1886ZM51.0532 28.1053L56.1022 56.7906C55.3313 57.9678 54.4791 59.0572 53.5752 60.0247L52.8167 60.8022L52.7822 60.8363C49.3612 64.1508 45.3098 65.9031 41.0613 65.9031C39.1797 65.9031 37.3251 65.5571 35.5518 64.8771C34.5297 64.4871 33.5224 63.9851 32.5619 63.3807L31.0349 28.1053H51.0532Z" fill="white"/>
<path id="Vector_10" d="M27.6484 27.4131L25.4737 21.5786H57.2696L55.0949 27.4131H27.6484Z" fill="#DC1625"/>
<path id="Vector_11" d="M41.5465 19.0561C43.0863 19.0561 44.3345 17.8209 44.3345 16.2973C44.3345 14.7736 43.0863 13.5384 41.5465 13.5384C40.0067 13.5384 38.7585 14.7736 38.7585 16.2973C38.7585 17.8209 40.0067 19.0561 41.5465 19.0561Z" fill="white"/>
<path id="Vector_12" d="M57.245 56.3982L57.7893 59.1278L55.3953 59.8736L57.245 56.3982Z" fill="white"/>
<g id="Group_2">
<path id="Vector_13" d="M68.7885 48.2265C65.7321 51.2973 61.1536 56.3007 56.7548 54.3973L49.3243 63.2052C49.3243 63.2052 55.4249 62.2596 61.624 59.1815C65.9193 57.049 69.488 55.2698 70.0421 48.7821C70.0988 48.1119 69.2688 47.7463 68.791 48.2265H68.7885Z" fill="#031A35"/>
<path id="Vector_14" d="M47.6027 64.1703L56.5554 53.5565L57.0356 53.7637C60.7497 55.3698 64.8085 51.2656 67.7714 48.2679L68.2935 47.7415C68.722 47.3101 69.3599 47.1955 69.9141 47.4466C70.4633 47.6976 70.7859 48.2435 70.7367 48.8382C70.1505 55.7183 66.3453 57.6095 61.9368 59.7981C55.713 62.8884 49.6864 63.8486 49.4327 63.8876L47.6027 64.1728V64.1703ZM56.9716 55.2187L51.1345 62.1353C53.3955 61.6186 57.3509 60.5292 61.3087 58.5649C65.508 56.4811 68.823 54.8336 69.3451 48.7236C69.3451 48.709 69.3279 48.6993 69.3107 48.6968L69.2836 48.7115L68.7639 49.2354C65.8109 52.2234 61.3999 56.6858 56.9691 55.2187H56.9716Z" fill="white"/>
</g>
<path id="Vector_15" d="M57.3164 65.8179C57.3533 65.8179 57.7277 65.3792 57.7966 65.3085C58.0134 65.0891 58.203 64.8406 58.4198 64.6188C58.8532 64.1752 59.3261 63.7658 59.831 63.4026C60.8211 62.6861 61.9294 62.1329 63.1042 61.7819C65.2124 61.1507 67.5152 61.1726 69.6087 61.8477C71.4041 62.4253 72.9779 63.8145 73.1158 65.7764C73.1799 66.6806 72.9114 67.5945 72.4016 68.3452C72.1381 68.7327 71.813 69.0617 71.4386 69.3469C71.2046 69.5248 70.6997 70.0536 70.3894 69.9976C70.0963 69.944 70.4978 69.3712 70.584 69.1568C70.8771 68.428 71.0839 67.6311 70.8992 66.8488C70.7047 66.0299 70.0939 65.3524 69.3772 64.8966C68.4733 64.3239 67.3748 63.9875 66.3256 63.7901C63.7396 63.3051 61.5476 64.1898 59.2054 65.1452C58.6414 65.3743 57.9198 65.7837 57.3139 65.8179H57.3164Z" fill="#FFD400"/>
<g id="Group_3">
<path id="Vector_16" d="M29.865 11.0403C29.7911 11.0403 29.7296 10.9794 29.7296 10.9063V8.79815C29.7296 8.75428 29.7517 8.71285 29.7887 8.68847L41.2337 0.787214C41.3248 0.723848 41.4332 0.689728 41.5465 0.689728C41.6598 0.689728 41.7657 0.723848 41.8593 0.787214L53.3068 8.69091C53.3437 8.71528 53.3634 8.75671 53.3634 8.80058V10.9087C53.3634 10.9818 53.3043 11.0428 53.228 11.0428H29.865V11.0403Z" fill="#031A35"/>
<path id="Vector_17" d="M41.5465 1.41355L52.6664 9.09059V10.3506H30.4265V9.09059L41.5465 1.41355ZM41.5465 0C41.2977 0 41.049 0.0731147 40.8347 0.221781L29.3872 8.12548C29.1631 8.27902 29.0301 8.53248 29.0301 8.80057V10.9087C29.0301 11.3645 29.402 11.7325 29.8625 11.7325H53.228C53.6885 11.7325 54.0604 11.3645 54.0604 10.9087V8.80057C54.0604 8.53248 53.9274 8.27902 53.7033 8.12548L42.2583 0.221781C42.044 0.0755518 41.7953 0 41.5465 0Z" fill="white"/>
</g>
<path id="Vector_18" d="M57.3632 20.8889H25.3801C24.9392 20.8889 24.6338 21.3227 24.7865 21.7297L27.0105 27.6934C27.1016 27.9395 27.3381 28.1028 27.6041 28.1028H28.9858L28.9069 28.4148L31.8747 30.9056L32.025 28.1004H55.58L57.9567 21.7297C58.1094 21.3202 57.804 20.8889 57.3632 20.8889ZM54.6072 26.7234H28.1361L26.4761 22.2707H56.2721L54.6121 26.7234H54.6072Z" fill="white"/>
<g id="Group_4">
<path id="Vector_19" d="M21.2818 23.6136C21.2991 23.6136 21.3163 23.6136 21.3336 23.6136C21.6488 23.6307 21.9542 23.7403 22.2473 23.8524C23.0403 24.1571 23.8432 24.508 24.5008 25.0345C25.0919 25.5097 29.8576 29.8503 31.754 32.2801C34.4928 35.7872 37.0566 39.1627 38.7831 43.0938C38.9309 43.4301 39.0713 43.7713 39.2018 44.115C40.485 47.4807 40.9554 51.1242 40.9653 54.7312C40.9726 57.105 40.783 59.4715 40.517 61.8282C40.3865 62.9859 40.3274 64.124 40.1722 65.2768C40.1353 65.5546 39.9998 66.6562 39.9038 66.9438C39.8767 67.0267 39.788 67.0583 39.6698 67.0583C39.3767 67.0583 38.8989 66.8731 38.6748 66.8366C36.9655 66.5587 35.409 66.1054 33.7761 65.5473C32.3525 65.0599 31.0965 64.3848 29.8675 63.4757C29.7148 63.3636 28.3503 62.4034 27.2297 61.3432C26.7076 60.8485 25.8062 59.7883 25.1141 58.9646C23.9664 57.6022 23.3827 56.7199 22.4616 55.2552C22.0749 54.641 21.7572 53.7125 21.7399 53.5224C21.7079 53.1739 23.4984 51.9529 23.1783 51.8017C22.8876 51.6653 22.5625 51.6092 22.2424 51.5897C21.9222 51.5702 21.5601 51.5556 21.2277 51.6019C20.5972 51.6872 20.176 52.0406 19.9125 52.606C19.2943 53.927 19.4322 55.4063 19.6046 56.8077C19.6637 57.2927 19.6736 57.7045 19.6317 58.0701C19.6317 58.0847 19.6342 58.0994 19.6317 58.1164C19.5381 58.7842 19.6391 60.188 21.3557 62.1109C21.4321 62.1962 21.3631 62.3181 21.2671 62.3181C21.2498 62.3181 21.2326 62.3156 21.2153 62.3059C20.543 62.0037 19.3731 61.392 18.5997 60.5292C18.6613 60.8777 18.7746 61.2725 18.9569 61.7234C18.9815 61.7843 18.9322 61.8404 18.8781 61.8404C18.8584 61.8404 18.8386 61.8331 18.8214 61.816C18.5554 61.5626 18.1564 61.1409 17.8436 60.6462C17.3387 61.0532 16.856 61.4846 16.3462 61.8843C15.9718 62.1767 15.0606 63.3514 14.6246 63.5537C14.5113 63.6073 14.4104 63.6488 14.3143 63.6488C14.2306 63.6488 14.1493 63.6171 14.0656 63.5342C13.7626 63.2344 13.4572 62.9347 13.1543 62.6349C12.8834 62.3668 12.8144 62.34 12.4795 62.0427C12.0805 61.6893 11.6569 61.4236 11.4278 61.0556C9.98209 58.7355 9.05112 58.0677 5.98975 56.5469C4.09332 55.6037 3.0195 53.5443 1.53438 52.0455C0.913731 51.268 0.97284 50.1518 1.67476 49.445C1.73141 49.389 1.78313 49.3256 1.83731 49.2671C3.1525 47.8219 7.09805 44.483 8.41323 43.0377C9.62497 41.7046 9.88358 40.603 10.4722 39.421C10.4451 39.421 10.4156 39.421 10.386 39.421C9.67423 39.421 8.68908 39.6208 7.40098 40.3154C7.38128 40.3252 7.36158 40.3301 7.34434 40.3301C7.25814 40.3301 7.18918 40.2277 7.25321 40.1473C7.80244 39.4332 9.01171 38.0635 10.354 37.8198C9.80723 37.6955 9.15456 37.6175 8.38368 37.6175C7.8714 37.6175 7.30493 37.6516 6.68182 37.732C6.67443 37.732 6.66458 37.732 6.65719 37.732C6.49218 37.732 6.42075 37.5151 6.56853 37.425C7.55122 36.8303 9.48705 35.8189 11.2628 35.8189C11.8785 35.8189 12.4721 35.9407 13.0041 36.2405C13.5631 35.6653 14.1321 35.0975 14.6887 34.5516C16.3068 32.965 17.59 31.7683 19.3928 30.2597C20.0011 29.7504 20.6489 29.2922 21.2744 28.8072C21.5872 28.5659 21.8976 28.3173 22.2153 28.0809C22.2892 28.0273 22.1709 27.7714 22.1512 27.7129C22.0552 27.4424 21.9345 27.1767 21.8163 26.9135C21.4247 26.0069 20.9346 25.1514 20.6021 24.2204C20.5824 24.1644 20.5627 24.1083 20.5651 24.0498C20.5824 23.7233 21.0109 23.6063 21.2868 23.6063M21.2868 22.5705C20.3041 22.5705 19.5627 23.17 19.5209 23.9962C19.5086 24.2594 19.58 24.4642 19.6145 24.5641C19.8386 25.1904 20.1194 25.768 20.3903 26.3286C20.5553 26.6698 20.7129 26.9915 20.8582 27.3278L20.8631 27.3376C20.9173 27.457 20.969 27.574 21.0183 27.6885C20.9912 27.7105 20.9641 27.73 20.937 27.7519C20.8361 27.8323 20.7326 27.9103 20.6316 27.9907C20.4272 28.1491 20.2179 28.3051 20.011 28.4611C19.5849 28.7804 19.1416 29.1118 18.7155 29.4701C16.8339 31.0469 15.499 32.3021 13.9523 33.818C13.536 34.225 13.1371 34.6222 12.7553 35.0073C12.2947 34.8586 11.7948 34.7831 11.2628 34.7831C9.23337 34.7831 7.1079 35.8847 6.02177 36.5403C5.55382 36.823 5.33708 37.3665 5.48486 37.888C5.63263 38.4047 6.11289 38.7654 6.65473 38.7654C6.70645 38.7654 6.75817 38.763 6.81235 38.7557C6.90594 38.7435 7.002 38.7337 7.09312 38.7215C6.82467 39.0091 6.59808 39.2845 6.41829 39.516C6.14984 39.867 6.10304 40.3276 6.30007 40.72C6.49464 41.1099 6.90348 41.361 7.34188 41.361C7.53644 41.361 7.72855 41.3122 7.90095 41.2196C8.16202 41.0783 8.41816 40.9564 8.66445 40.854C8.41816 41.3366 8.11276 41.8143 7.6325 42.3431C7.00692 43.0304 5.68928 44.2295 4.4135 45.3896C3.04167 46.6374 1.74619 47.8146 1.05658 48.575L0.992544 48.6456C0.970378 48.6724 0.948211 48.6968 0.923583 48.7212C-0.142849 49.7984 -0.233976 51.5044 0.711774 52.6889L0.746255 52.7327L0.785661 52.7717C1.2413 53.2324 1.66245 53.7588 2.10577 54.3145C3.06137 55.5087 4.04653 56.7443 5.51934 57.4754C6.89855 58.1603 8.34427 58.85 9.38607 60.0125C9.91067 60.5974 10.2555 61.3286 10.7751 61.9013C11.3071 62.4887 11.8564 63.0639 12.4548 63.583C12.9474 64.0119 13.6124 64.6894 14.3143 64.6894C14.6542 64.6894 14.9251 64.5627 15.0704 64.4969C15.494 64.2995 15.8906 63.8876 16.4915 63.2271C16.659 63.0443 16.9127 62.7689 16.9964 62.7007C17.2304 62.5155 17.4594 62.3278 17.6811 62.1402C17.8313 62.3059 17.9742 62.4472 18.0949 62.5642C18.3067 62.7665 18.585 62.8786 18.8781 62.8786C19.1416 62.8786 19.3903 62.7885 19.5898 62.63C20.0134 62.8835 20.4272 63.0907 20.7843 63.2491C20.9395 63.3173 21.102 63.3539 21.2695 63.3539C21.7276 63.3539 22.1438 63.0858 22.3335 62.6715C22.5231 62.2571 22.4468 61.7697 22.1414 61.4285C20.6489 59.7542 20.6144 58.6575 20.671 58.2626C20.6784 58.209 20.6809 58.1603 20.6809 58.1189C20.7228 57.6948 20.7104 57.2269 20.6439 56.6882C20.4863 55.4039 20.4026 54.4461 20.6957 53.4931C20.6957 53.5346 20.6957 53.576 20.7006 53.6199C20.74 54.0366 21.1513 55.1285 21.5774 55.806C22.4665 57.2171 23.0921 58.1798 24.3137 59.6299C25.087 60.5487 25.9564 61.5699 26.5106 62.0939C27.2199 62.7641 28.1188 63.4928 29.1828 64.2629L29.2444 64.3068C30.5719 65.289 31.9437 66.0128 33.4362 66.5246C35.4164 67.2046 36.9335 67.6018 38.5073 67.8577C38.5368 67.8626 38.6378 67.8919 38.7117 67.9138C38.99 67.9942 39.3373 68.0941 39.6722 68.0941C40.3742 68.0941 40.7682 67.6676 40.9012 67.2704C40.9874 67.0145 41.0638 66.5636 41.1943 65.5449L41.2115 65.4157C41.3027 64.7309 41.3618 64.0485 41.4209 63.3904C41.4628 62.9152 41.5046 62.4253 41.5588 61.9452C41.8741 59.1425 42.0194 56.8515 42.012 54.7312C42.0021 50.6075 41.3839 46.9152 40.1796 43.7543C40.0417 43.3936 39.8939 43.0353 39.7412 42.6868C38.0122 38.7459 35.4755 35.3583 32.5816 31.6513C30.6211 29.1411 25.8431 24.781 25.1584 24.2326C24.3728 23.6038 23.4369 23.1993 22.6241 22.8898C22.2719 22.7557 21.8582 22.6095 21.3902 22.5827C21.3557 22.5827 21.3188 22.5802 21.2818 22.5802L21.2868 22.5705Z" fill="white"/>
<path id="Vector_20" d="M39.6722 68.1575C39.3299 68.1575 38.9777 68.0576 38.6969 67.9747C38.6157 67.9503 38.5245 67.926 38.4974 67.9187C36.9212 67.6628 35.4016 67.2631 33.419 66.5831C31.9215 66.0689 30.5423 65.3401 29.2099 64.3555L29.1483 64.3117C28.0819 63.5415 27.1805 62.8104 26.4687 62.1377C25.9145 61.6137 25.0427 60.5877 24.2669 59.6689C23.0428 58.2139 22.4148 57.2512 21.5257 55.8377C21.1513 55.243 20.7868 54.3291 20.6735 53.8221C20.4863 54.6703 20.5701 55.5574 20.7055 56.6809C20.772 57.2244 20.7843 57.6972 20.7425 58.1237C20.7425 58.17 20.7375 58.2212 20.7326 58.27C20.6784 58.655 20.7129 59.7323 22.1882 61.3871C22.5084 61.7453 22.5872 62.2596 22.3901 62.6958C22.1906 63.1321 21.7523 63.4148 21.2695 63.4148C21.0922 63.4148 20.9198 63.3782 20.7572 63.3051C20.3484 63.1223 19.9568 62.9201 19.5923 62.7031C19.3879 62.8567 19.1342 62.9395 18.8756 62.9395C18.5677 62.9395 18.2722 62.8226 18.0481 62.6081C17.9175 62.4838 17.7919 62.3546 17.6712 62.2255C17.4717 62.3936 17.255 62.5715 17.0309 62.7495C16.9496 62.8153 16.6885 63.1004 16.5334 63.271C15.925 63.9339 15.5261 64.3531 15.0926 64.5529C14.9424 64.6236 14.6641 64.7528 14.3119 64.7528C13.6715 64.7528 13.0755 64.2215 12.5977 63.795C12.5337 63.7389 12.4721 63.6829 12.413 63.6317C11.7677 63.0712 11.1988 62.4643 10.7284 61.9452C10.4648 61.6552 10.2432 61.3188 10.0289 60.9947C9.81708 60.6754 9.59789 60.344 9.33928 60.0564C8.3492 58.9499 6.9823 58.2748 5.66219 57.6192L5.49225 57.5339C4.00712 56.7979 3.01704 55.5574 2.05898 54.3583C1.61566 53.8026 1.19697 53.2787 0.741332 52.8205L0.662519 52.7327C-0.300471 51.5263 -0.206881 49.7862 0.879254 48.6846C0.898957 48.6651 0.916197 48.6456 0.933437 48.6237L1.00732 48.5408C1.6994 47.778 2.99734 46.6009 4.36917 45.353C5.64248 44.1954 6.96013 42.9963 7.58324 42.3115C7.96745 41.8898 8.263 41.4755 8.52653 40.9881C8.3295 41.0758 8.12754 41.1733 7.92558 41.283C7.74579 41.3805 7.54137 41.4316 7.33695 41.4316C6.87639 41.4316 6.44539 41.166 6.24097 40.7566C6.03408 40.3422 6.08088 39.8572 6.36411 39.4892C6.5439 39.2553 6.73601 39.0262 6.93058 38.8093C6.89117 38.8141 6.85176 38.819 6.81236 38.8239C6.75817 38.8312 6.70153 38.8336 6.64734 38.8336C6.07842 38.8336 5.57352 38.4534 5.41836 37.91C5.2632 37.3616 5.48732 36.7913 5.98236 36.494C7.07342 35.8335 9.20875 34.727 11.2554 34.727C11.78 34.727 12.275 34.8001 12.7307 34.9415C13.105 34.5613 13.4991 34.1714 13.9006 33.779C15.4473 32.2631 16.7846 31.0079 18.6687 29.4287C19.0973 29.068 19.5406 28.7365 19.9667 28.4172C20.1735 28.2613 20.3804 28.1053 20.5873 27.9469C20.6883 27.8689 20.7917 27.7884 20.8927 27.708L20.9346 27.6739C20.8902 27.574 20.8459 27.4716 20.7991 27.3668C20.6489 27.0207 20.4937 26.699 20.3287 26.3603C20.0553 25.7973 19.7745 25.2172 19.5504 24.5909C19.5135 24.4885 19.4371 24.2765 19.4519 24.0011C19.4938 23.1408 20.2647 22.5169 21.2794 22.5169C21.3188 22.5169 21.3557 22.5169 21.3927 22.5193C21.868 22.5461 22.2892 22.6924 22.6438 22.8288C23.4615 23.1408 24.4023 23.5478 25.1954 24.1815C25.8801 24.7298 30.6654 29.0972 32.6284 31.6099C35.5247 35.3193 38.064 38.7118 39.7954 42.6575C39.9481 43.006 40.0959 43.3667 40.2338 43.7299C41.4406 46.8982 42.0588 50.6002 42.0686 54.7288C42.0736 56.854 41.9307 59.1473 41.6155 61.9501C41.5613 62.4302 41.5194 62.92 41.4775 63.3929C41.4209 64.0533 41.3593 64.7333 41.2682 65.4206L41.251 65.5497C41.118 66.5733 41.0416 67.0291 40.9529 67.2874C40.8126 67.7066 40.4013 68.1551 39.6673 68.1551L39.6722 68.1575ZM20.7597 53.0739V53.4931C20.7572 53.5321 20.7597 53.5711 20.7622 53.6126C20.7991 54.0244 21.208 55.1017 21.6291 55.7719C22.5157 57.1805 23.1413 58.1408 24.3605 59.5909C25.1338 60.5073 26.0032 61.5309 26.5524 62.05C27.2593 62.7178 28.1558 63.4465 29.2197 64.2142L29.2813 64.258C30.6063 65.2354 31.9708 65.9592 33.4584 66.4686C35.4336 67.1461 36.9483 67.5458 38.5196 67.7992C38.5492 67.8041 38.6452 67.8334 38.7216 67.8529C39.0073 67.9357 39.3496 68.0332 39.6747 68.0332C40.3446 68.0332 40.719 67.6286 40.8446 67.2509C40.9283 66.9999 41.0047 66.5514 41.1352 65.5351L41.1524 65.4059C41.2436 64.7211 41.3027 64.0411 41.3593 63.3831C41.4012 62.9079 41.4431 62.418 41.4972 61.9354C41.8125 59.1376 41.9553 56.8467 41.9504 54.7263C41.9406 50.6124 41.3248 46.925 40.123 43.7713C39.985 43.4106 39.8397 43.0524 39.687 42.7063C37.9605 38.7727 35.4262 35.3875 32.5348 31.683C30.5793 29.1776 25.8062 24.8224 25.1215 24.2765C24.3432 23.6526 23.4122 23.2505 22.6044 22.9434C22.2571 22.8093 21.8483 22.6655 21.3902 22.6412C21.3557 22.6412 21.3212 22.6387 21.2843 22.6387C20.3361 22.6387 19.6194 23.2139 19.58 24.006C19.5677 24.2594 19.6366 24.4544 19.6711 24.5495C19.8928 25.1709 20.1735 25.7485 20.442 26.3042C20.6095 26.6479 20.7646 26.9696 20.9124 27.3083C20.9691 27.4375 21.0232 27.5545 21.0725 27.669L21.0922 27.7129L20.974 27.8055C20.873 27.8859 20.7696 27.9639 20.6686 28.0443C20.4642 28.2028 20.2548 28.3587 20.0479 28.5147C19.6218 28.834 19.1835 29.163 18.7549 29.5213C16.8757 31.0981 15.5384 32.3508 13.9941 33.8643C13.5828 34.2664 13.1814 34.6661 12.7996 35.0536L12.7726 35.0804L12.7356 35.0682C12.2824 34.922 11.7874 34.8489 11.2603 34.8489C9.24569 34.8489 7.13253 35.9456 6.05132 36.5988C5.60554 36.8669 5.40112 37.3811 5.54151 37.8783C5.68189 38.3681 6.13752 38.7118 6.65227 38.7118C6.70153 38.7118 6.75078 38.7093 6.80251 38.702C6.89856 38.6898 6.99215 38.6777 7.08574 38.6679L7.25075 38.6508L7.13992 38.7703C6.90595 39.0189 6.68182 39.2845 6.47002 39.5599C6.21387 39.8914 6.17201 40.3276 6.35918 40.7005C6.5439 41.0685 6.93058 41.3074 7.34434 41.3074C7.52906 41.3074 7.71131 41.261 7.87386 41.1733C8.13493 41.032 8.39353 40.9077 8.64475 40.8029L8.79991 40.7395L8.72356 40.8882C8.4354 41.4536 8.11276 41.9166 7.68176 42.3894C7.05372 43.0792 5.73607 44.2782 4.4603 45.4383C3.09093 46.6837 1.79545 47.8609 1.10584 48.6188L1.03195 48.7017C1.01225 48.7236 0.992546 48.7456 0.972843 48.7675C-0.0714221 49.8228 -0.160086 51.4947 0.763498 52.6548L0.832459 52.7327C1.29056 53.1958 1.71171 53.7222 2.15749 54.2803C3.10817 55.4697 4.09086 56.698 5.55136 57.4243L5.7213 57.5096C7.05126 58.17 8.42801 58.8524 9.43534 59.976C9.69886 60.2709 9.92052 60.6048 10.1348 60.9289C10.3466 61.2482 10.5658 61.5796 10.8219 61.8648C11.2899 62.3814 11.8564 62.9859 12.4967 63.5415C12.5558 63.5927 12.6174 63.6488 12.6814 63.7048C13.1444 64.1167 13.7208 64.6309 14.3143 64.6309C14.6419 64.6309 14.903 64.5091 15.0433 64.4433C15.4571 64.2507 15.8487 63.8413 16.4447 63.1881C16.6688 62.9444 16.8757 62.7202 16.957 62.6544C17.1984 62.4643 17.4274 62.2742 17.6392 62.0963L17.686 62.0573L17.7254 62.1012C17.856 62.245 17.9939 62.3863 18.1367 62.5228C18.3387 62.7153 18.5998 62.8201 18.8781 62.8201C19.1219 62.8201 19.3608 62.7373 19.5504 62.5837L19.5849 62.5569L19.6218 62.5788C19.9937 62.8006 20.3927 63.0078 20.809 63.1954C20.9543 63.2612 21.1094 63.2954 21.2695 63.2954C21.703 63.2954 22.0971 63.0419 22.2768 62.6495C22.4566 62.2571 22.3852 61.7941 22.0946 61.4724C20.5848 59.781 20.5528 58.6599 20.6095 58.2578C20.6169 58.2066 20.6193 58.1603 20.6193 58.1213C20.6612 57.6972 20.6489 57.2342 20.5824 56.698C20.4272 55.4234 20.3386 54.4461 20.6341 53.4785L20.7572 53.0764L20.7597 53.0739ZM39.6722 67.1217C39.4777 67.1217 39.2166 67.0462 38.9876 66.9804C38.8644 66.9438 38.7462 66.9121 38.6674 66.8975C37.1502 66.6513 35.6848 66.2663 33.7588 65.6058C32.3427 65.1208 31.0965 64.4603 29.833 63.5269L29.764 63.4757C28.7345 62.7324 27.8676 62.0305 27.1903 61.3895C26.678 60.9045 25.8259 59.9053 25.0698 59.006C23.9294 57.6509 23.3581 56.793 22.4123 55.2893C22.0281 54.6776 21.7005 53.7393 21.6808 53.5297C21.6636 53.3469 21.9714 53.052 22.4813 52.5889C22.7596 52.3355 23.1807 51.9528 23.1586 51.8602C22.9073 51.7433 22.6167 51.6775 22.2424 51.6531C21.9173 51.6336 21.5725 51.619 21.24 51.6653C20.6538 51.7457 20.24 52.0625 19.9716 52.6353C19.378 53.905 19.4889 55.3307 19.6686 56.8028C19.7302 57.2951 19.7376 57.7143 19.6957 58.0799C19.6957 58.0994 19.6957 58.1115 19.6957 58.1262C19.6046 58.7818 19.7031 60.1661 21.405 62.0719C21.4542 62.128 21.4666 62.2035 21.437 62.2693C21.3951 62.3595 21.2868 62.4034 21.1932 62.3619C20.5873 62.089 19.4938 61.5284 18.7057 60.729C18.7746 61.0386 18.8805 61.3651 19.016 61.7015C19.0357 61.7478 19.0283 61.7965 19.0012 61.838C18.9519 61.9086 18.8436 61.9233 18.7795 61.8623C18.5135 61.6089 18.1367 61.2116 17.8289 60.7388C17.622 60.907 17.4151 61.08 17.2156 61.2506C16.9472 61.4773 16.6688 61.7137 16.3856 61.9354C16.2428 62.0476 16.0088 62.3034 15.7625 62.5715C15.3709 63.0005 14.9276 63.4855 14.6517 63.6122C14.5384 63.6658 14.4251 63.7121 14.3143 63.7121C14.2035 63.7121 14.1124 63.6683 14.0237 63.5805L13.1124 62.6812C12.9523 62.5252 12.8637 62.4497 12.7504 62.3546C12.6691 62.2888 12.578 62.2108 12.4401 62.089C12.3243 61.9842 12.2036 61.8891 12.0879 61.7941C11.8096 61.5674 11.5436 61.3554 11.3786 61.0873C9.9156 58.7403 8.98955 58.1018 5.96512 56.6005C4.68688 55.9668 3.77069 54.8165 2.88158 53.7052C2.44073 53.1544 1.98509 52.5841 1.49251 52.0845C0.849699 51.2802 0.911271 50.1274 1.6329 49.3987C1.66984 49.3622 1.70432 49.3232 1.7388 49.2842L1.79299 49.2232C2.45304 48.497 3.79039 47.2808 5.08341 46.1037C6.37642 44.929 7.71131 43.7128 8.36644 42.9914C9.26047 42.0092 9.63729 41.1392 10.0018 40.2959C10.1176 40.0278 10.2358 39.7549 10.3712 39.477C9.50183 39.4795 8.51175 39.7793 7.42808 40.3642C7.33695 40.4129 7.22612 40.3739 7.18179 40.2886C7.15224 40.2301 7.15962 40.1619 7.20149 40.1058C7.75564 39.3844 8.83439 38.178 10.0683 37.8198C9.09299 37.637 7.95021 37.6272 6.68429 37.7881C6.5636 37.8027 6.46263 37.732 6.43061 37.6224C6.40352 37.5224 6.44292 37.4225 6.53159 37.3689C7.52906 36.7669 9.46982 35.7531 11.2579 35.7531C11.913 35.7531 12.4942 35.8896 12.9868 36.1601C13.4966 35.6361 14.0508 35.0804 14.6394 34.5052C16.1689 33.0064 17.489 31.7659 19.346 30.2085C19.7524 29.8673 20.1834 29.5456 20.5996 29.2312C20.8114 29.0728 21.0208 28.9144 21.2301 28.7536C21.3336 28.6731 21.437 28.5927 21.5429 28.5098C21.7473 28.349 21.9591 28.1833 22.1709 28.0273C22.1759 28.0151 22.1759 27.9615 22.0995 27.7665L22.0847 27.73C21.9887 27.4594 21.868 27.1938 21.7522 26.9354C21.602 26.5869 21.4321 26.2409 21.2695 25.9045C21.0085 25.3683 20.74 24.8127 20.5356 24.2375C20.5159 24.1839 20.4913 24.1157 20.4962 24.0425C20.5159 23.6526 21.0355 23.5259 21.3336 23.5429C21.6587 23.56 21.9714 23.6721 22.267 23.7866C23.0453 24.084 23.8605 24.4349 24.5378 24.9784C25.1831 25.4951 29.9241 29.8308 31.8008 32.2338C34.6529 35.8871 37.1527 39.2236 38.8373 43.0621C38.9826 43.396 39.1255 43.7396 39.256 44.0857C40.4185 47.137 41.0145 50.7172 41.0244 54.7215C41.0293 56.8052 40.8889 59.062 40.5761 61.8258C40.5219 62.3181 40.4776 62.8128 40.4357 63.2954C40.3791 63.9437 40.32 64.6139 40.2313 65.2768L40.2141 65.4108C40.1599 65.8276 40.0466 66.6976 39.9604 66.9535C39.9259 67.0583 39.8274 67.1095 39.6673 67.1095L39.6722 67.1217ZM21.7424 51.5142C21.9148 51.5142 22.0847 51.5239 22.2522 51.5337C22.6414 51.558 22.9468 51.6287 23.2103 51.7506C23.2497 51.7701 23.2768 51.8017 23.2817 51.8432C23.3063 51.9967 23.0379 52.2502 22.5675 52.6791C22.2424 52.9765 21.7941 53.3835 21.8064 53.5199C21.8212 53.6881 22.1315 54.6093 22.5182 55.226C23.4615 56.7248 24.028 57.5778 25.1658 58.928C25.7101 59.5763 26.7248 60.7802 27.2765 61.3018C27.9489 61.9379 28.8109 62.6373 29.8379 63.3782L29.9093 63.4294C31.163 64.3555 32.3993 65.0087 33.8032 65.4912C35.7218 66.1493 37.1823 66.5344 38.6895 66.7781C38.7757 66.7927 38.8915 66.8244 39.0245 66.8634C39.2462 66.9267 39.4998 66.9999 39.6747 66.9999C39.8274 66.9999 39.8446 66.9462 39.852 66.9267C39.9333 66.6806 40.0491 65.7861 40.0983 65.4059L40.1156 65.2719C40.2042 64.6114 40.2609 63.9412 40.3175 63.2954C40.3594 62.8153 40.4037 62.3181 40.4579 61.8233C40.7682 59.0645 40.9111 56.8101 40.9037 54.7336C40.8938 50.744 40.3003 47.1785 39.1427 44.1393C39.0122 43.7957 38.8718 43.452 38.7265 43.1206C37.0468 39.2967 34.5544 35.9651 31.7048 32.3191C29.833 29.9234 25.1067 25.5999 24.4614 25.0832C23.7964 24.5495 22.9935 24.2034 22.2251 23.9109C21.9394 23.8013 21.6365 23.694 21.3286 23.677C21.0848 23.6623 20.6366 23.7623 20.6218 24.0596C20.6218 24.1083 20.639 24.1595 20.6538 24.2083C20.8582 24.7786 21.1242 25.3294 21.3828 25.8631C21.5454 26.1994 21.7153 26.5479 21.8655 26.8964C21.9813 27.1548 22.1044 27.4229 22.2005 27.6983L22.2128 27.73C22.2793 27.8957 22.336 28.0663 22.2424 28.1345C22.0306 28.2905 21.8212 28.4562 21.6168 28.6146C21.5133 28.6951 21.4099 28.7779 21.304 28.8584C21.0947 29.0192 20.8828 29.1776 20.671 29.3385C20.2548 29.6504 19.8263 29.9721 19.4224 30.3109C17.5678 31.8634 16.2502 33.1039 14.7232 34.6003C14.1222 35.1877 13.5558 35.7555 13.041 36.2868L13.0065 36.3209L12.9647 36.2966C12.4819 36.0212 11.9056 35.8822 11.2554 35.8822C9.49691 35.8822 7.57832 36.8815 6.59316 37.4786C6.52912 37.5176 6.54144 37.5761 6.54636 37.5956C6.55868 37.6346 6.59809 37.6809 6.66705 37.6736C8.06597 37.4956 9.31465 37.5249 10.3614 37.7637L10.652 37.8295L10.3589 37.8831C9.05605 38.1196 7.88125 39.4283 7.29755 40.1863C7.28031 40.2082 7.28523 40.2277 7.29016 40.2399C7.30493 40.2667 7.33695 40.2813 7.36651 40.2642C8.47481 39.6671 9.48706 39.3625 10.3811 39.3625C10.4106 39.3625 10.4402 39.3625 10.4673 39.3625H10.5633L10.5215 39.4502C10.3712 39.7524 10.2382 40.0571 10.1126 40.3495C9.7432 41.2001 9.36145 42.0824 8.4551 43.0792C7.79505 43.8054 6.4577 45.0216 5.16222 46.1987C3.8692 47.3734 2.53432 48.5896 1.87919 49.3085L1.825 49.3695C1.78806 49.4109 1.75358 49.4499 1.71417 49.4889C1.03688 50.1737 0.977769 51.2583 1.57871 52.0089C2.07129 52.5061 2.52939 53.0788 2.97271 53.6345C3.85196 54.7361 4.76077 55.8742 6.01438 56.4957C9.06836 58.0141 10.0289 58.7038 11.4771 61.0264C11.6322 61.275 11.8884 61.4821 12.1593 61.7015C12.275 61.7965 12.3957 61.894 12.5164 61.9988C12.6519 62.1207 12.7455 62.1962 12.8243 62.262C12.94 62.3571 13.0312 62.4351 13.1962 62.5959L14.1074 63.4952C14.1739 63.561 14.238 63.5927 14.3119 63.5927C14.3981 63.5927 14.4966 63.5513 14.5976 63.5025C14.8512 63.3855 15.2847 62.9103 15.6689 62.4887C15.93 62.2035 16.1541 61.9574 16.3068 61.838C16.5876 61.6186 16.8659 61.3822 17.1343 61.1555C17.3511 60.9728 17.5777 60.7827 17.8042 60.5999L17.8584 60.556L17.8954 60.6145C18.2032 61.0995 18.5924 61.5114 18.8633 61.7722C18.8854 61.7916 18.8904 61.777 18.8978 61.7673C18.9027 61.76 18.9027 61.7527 18.8978 61.7453C18.7278 61.3237 18.6047 60.9191 18.5382 60.5389L18.4988 60.3269L18.6441 60.4878C19.4224 61.353 20.6045 61.9622 21.24 62.2474C21.2794 62.2645 21.3114 62.2401 21.3212 62.2157C21.3286 62.2011 21.3336 62.1743 21.3089 62.1475C19.5751 60.2051 19.4765 58.7818 19.5701 58.1042C19.5701 58.0823 19.5701 58.0725 19.5701 58.0628C19.612 57.7045 19.6021 57.2975 19.543 56.8125C19.3608 55.3234 19.2475 53.8782 19.8558 52.5792C20.1415 51.9675 20.5898 51.6263 21.2203 51.541C21.3927 51.5166 21.5675 51.5093 21.7399 51.5093L21.7424 51.5142Z" fill="white"/>
</g>
<path id="Vector_21" d="M39.2018 44.1174C39.0713 43.7738 38.9309 43.4326 38.7831 43.0962C37.0566 39.1627 34.4928 35.7872 31.754 32.2826C29.8576 29.8527 25.0919 25.5097 24.5008 25.0369C23.8432 24.508 23.0403 24.1571 22.2473 23.8549C21.9542 23.7428 21.6488 23.6331 21.3336 23.616C21.0626 23.6014 20.5774 23.7111 20.5602 24.0572C20.5577 24.1157 20.5774 24.1717 20.5971 24.2278C20.9296 25.1588 21.4198 26.0142 21.8114 26.9208C21.9296 27.184 22.0503 27.4473 22.1463 27.7202C22.166 27.7763 22.2842 28.0322 22.2103 28.0882C21.8926 28.3246 21.5823 28.5708 21.2695 28.8145C20.6415 29.2995 19.9937 29.7577 19.3879 30.267C17.585 31.7781 16.3019 32.9747 14.6837 34.5589C14.1271 35.1048 13.5582 35.6727 12.9991 36.2478C10.9377 35.0756 7.88863 36.6305 6.5636 37.4298C6.40844 37.5249 6.49464 37.7589 6.67689 37.7369C8.24083 37.5371 9.44026 37.6199 10.3491 37.8247C9.00679 38.0684 7.79751 39.4381 7.24828 40.1521C7.17193 40.2521 7.28769 40.3788 7.39852 40.3203C8.73833 39.5965 9.75304 39.4113 10.4673 39.4283C9.87865 40.6103 9.62251 41.7095 8.4083 43.0451C7.09312 44.4903 3.14757 47.8292 1.83239 49.2744C1.7782 49.3329 1.72648 49.3963 1.66984 49.4523C0.967913 50.1616 0.908803 51.2753 1.52945 52.0528C3.01457 53.5541 4.08839 55.6135 5.98482 56.5542C9.04619 58.075 9.97717 58.7428 11.4229 61.063C11.6519 61.4285 12.0755 61.6942 12.4745 62.05C12.8095 62.3473 12.8785 62.3741 13.1494 62.6422C13.4523 62.942 13.7577 63.2418 14.0606 63.5415C14.2404 63.7195 14.4079 63.6585 14.6197 63.561C15.0556 63.3587 15.9669 62.184 16.3413 61.8916C16.8511 61.4919 17.3338 61.0605 17.8387 60.6535C18.1515 61.1483 18.5505 61.5674 18.8165 61.8233C18.883 61.8867 18.9864 61.8136 18.9519 61.7307C18.7697 61.2799 18.6589 60.885 18.5948 60.5365C19.3682 61.3993 20.538 62.0086 21.2104 62.3132C21.3336 62.3693 21.4395 62.2182 21.3508 62.1182C19.6342 60.1953 19.5332 58.7915 19.6268 58.1237C19.6268 58.1091 19.6268 58.0945 19.6268 58.0774C19.6686 57.7119 19.6588 57.3 19.5997 56.815C19.4741 55.7792 19.378 54.7507 19.543 53.7125C19.5898 53.4152 19.6563 53.1178 19.7745 52.84C19.8829 52.589 20.2129 51.9797 20.5602 52.0357C20.6366 52.0479 20.6981 52.1015 20.7523 52.1527C21.0405 52.4305 21.2695 52.762 21.4789 53.1032C21.7301 53.5102 21.9616 53.9294 22.1783 54.3535C22.3754 54.7385 22.6463 55.1553 22.7546 55.5745C22.7571 55.5842 22.7793 55.633 22.767 55.6427C22.4419 55.8742 21.3853 55.6232 21.8409 56.3446C22.762 57.8093 23.9615 57.6119 25.1092 58.9743C25.8012 59.7981 26.7027 60.8582 27.2248 61.353C28.3429 62.4131 29.7098 63.3734 29.8625 63.4855C31.0915 64.3945 32.3476 65.0672 33.7711 65.5571C35.4016 66.1176 36.9606 66.5709 38.6698 66.8463C38.9851 66.8975 39.8028 67.2436 39.8988 66.9536C39.9949 66.6684 40.1279 65.5668 40.1673 65.2865C40.32 64.1338 40.3815 62.9932 40.5121 61.838C40.7781 59.4812 40.9653 57.1123 40.9603 54.741C40.9505 51.1364 40.4776 47.4929 39.1969 44.1247L39.2018 44.1174Z" fill="#031A35"/>
<path id="Vector_22" d="M70.7342 57.4876C70.3131 57.1343 69.8451 56.8394 69.3451 56.6078C67.1827 55.611 64.673 56.0643 62.4663 56.7443L62.4367 56.7541C62.316 56.7906 62.1954 56.8296 62.0747 56.8686C61.5181 57.049 60.9713 57.2537 60.4295 57.4706C60.4295 57.4706 60.3482 57.4998 60.3457 57.5023C55.8436 59.3155 51.8315 62.1792 47.0954 63.5123C46.4403 63.6975 45.7777 63.8584 45.1103 63.99C41.3347 64.7431 37.3103 64.5968 33.7638 63.1102C31.9585 62.3546 30.3034 61.236 28.9513 59.8322C28.1952 59.0474 27.4391 58.0921 26.8652 57.0685C35.175 52.7547 39.5762 45.1849 39.1082 43.8688C38.5959 42.4358 37.7192 40.9174 37.7192 40.9174C36.3523 43.1352 34.7563 45.2117 32.983 47.1249C31.5225 48.7017 29.9389 50.1664 28.2567 51.5117C27.0721 52.4574 25.8308 53.3006 24.5723 54.1439C23.6043 54.7897 22.5478 55.2918 21.5995 55.979C21.5503 56.0156 22.3827 57.3487 22.4616 57.4755C22.7867 57.9946 23.1339 58.4991 23.4984 58.9914C24.2274 59.9711 25.0377 60.8948 25.9145 61.7502C27.6016 63.3953 29.5448 64.7845 31.6531 65.8544C34.8277 67.4654 38.4334 68.372 42.2484 68.372C44.5586 68.372 46.79 68.0381 48.8982 67.4166C49.6149 67.2387 50.3168 67.0047 50.9991 66.7318C51.9941 66.3321 52.9324 65.8447 53.8412 65.3134C54.2279 65.094 54.6072 64.8625 54.9791 64.6212C55.9248 64.0241 56.8558 63.3977 57.7991 62.7836C59.8901 61.4212 61.5747 59.6567 64.1263 59.0889C65.9365 58.6867 67.8649 58.9451 69.5742 59.6591C70.4263 60.015 71.2293 60.4805 71.973 61.024C72.3548 61.3042 72.7242 61.604 73.074 61.9208C73.367 62.184 73.6823 62.613 74.0025 62.7909C73.2537 60.9167 72.3154 58.8281 70.7342 57.495V57.4876Z" fill="#FFD400"/>
</g>
<defs>
<clipPath id="clip0_105_2">
<rect width="74" height="70" fill="white"/>
</clipPath>
</defs>
</svg>
