<svg width="105" height="101" viewBox="0 0 105 101" fill="none" xmlns="http://www.w3.org/2000/svg">
<g clip-path="url(#clip0_444_54)">
<path d="M81.6054 82.5984L80.715 77.4713L74.0772 39.3106L73.948 38.5581L67.6349 40.1159L45.5113 40.2144L45.2773 44.4447L45.218 45.5559C45.0993 45.8055 44.9945 46.0622 44.9037 46.3225C44.9736 46.4104 45.0434 46.4948 45.1062 46.5792C48.1895 50.5915 51.112 54.4912 53.4096 58.7637L54.52 57.6982L72.3802 40.5484L74.6778 53.693L58.8672 69.8723L57.5892 71.1804C57.9873 73.7544 58.1584 76.3707 58.1653 78.9729C58.1723 82.3944 57.907 85.8124 57.5298 89.2128C57.453 89.9161 57.3937 90.6159 57.3308 91.3122L58.9929 89.4625L77.3524 69.0178L79.6256 82.0252C78.5326 83.7131 77.3245 85.2744 76.043 86.6634L74.9676 87.7816L74.9187 87.8309C74.5521 88.1895 74.1854 88.5341 73.8083 88.8647C69.2341 92.9227 63.9442 95.0713 58.4202 95.1029H58.3015C57.8441 95.1029 57.3867 95.0889 56.9293 95.0572C56.8594 95.5706 56.7756 96.1614 56.6953 96.4708C56.6848 96.5201 56.6744 96.5587 56.6639 96.5939C56.6255 96.7135 56.4998 96.7592 56.3322 96.7592C55.9167 96.7592 55.2393 96.4919 54.9215 96.4392C52.4983 96.0383 50.288 95.3842 47.9765 94.579C46.9324 94.2132 45.9513 93.7772 45.005 93.2603C45.1482 93.3552 45.2913 93.4467 45.438 93.5416V93.5662C45.7941 93.8124 46.1538 94.0128 46.5204 94.1921C47.6343 94.8286 48.7796 95.3737 49.9423 95.8203C52.5122 96.8225 55.1939 97.3499 57.9174 97.3957C58.0466 97.3992 58.1723 97.3992 58.3015 97.3992C60.5607 97.3992 62.7814 97.0616 64.9358 96.4146C65.512 96.2739 66.0776 96.1121 66.6363 95.9258C69.7789 94.8954 72.6595 93.1407 75.3901 90.4471L75.9488 90.3486L76.6646 89.2269C77.0521 88.8049 77.4327 88.3759 77.8029 87.9399C78.8364 87.219 80.4217 86.6353 81.2003 85.7561C81.2527 85.6999 81.2981 85.6401 81.3435 85.5768C81.4971 85.3658 81.5425 85.1197 81.5425 84.8559C81.539 84.1421 81.1759 83.2946 81.5565 82.6792L81.6054 82.5984Z" fill="white"/>
<path d="M79.5697 38.6775C79.025 38.266 78.997 38.1148 78.4244 37.7456L77.8098 38.7232L75.9907 38.8146C77.0068 39.4194 77.7959 39.8274 78.7317 40.5482C86.1795 46.2555 90.9981 55.2787 90.9981 65.4132C90.9981 69.0246 90.3696 72.5903 89.1754 75.9485C88.8123 76.9753 88.3968 77.981 87.9219 78.9656C88.9136 78.5191 89.8808 77.9388 90.8131 77.2707C91.2391 76.1419 91.6092 74.9815 91.913 73.7964C92.6078 71.1204 92.9745 68.3072 92.9745 65.4132C92.9745 54.4488 87.7019 44.7258 79.5697 38.6775ZM88.6028 81.8913C88.4317 81.9441 88.2571 82.0004 88.0895 82.0531C87.3004 82.3168 86.5252 82.6087 85.757 82.9217C85.757 82.9217 85.6418 82.9639 85.6383 82.9674C85.6348 82.9674 85.6348 82.9709 85.6313 82.9709C85.1041 83.7586 84.5349 84.5252 83.9309 85.2636C83.8471 85.3656 83.7633 85.4676 83.6795 85.5661H83.676C83.243 86.0865 82.7926 86.5894 82.3247 87.0781C78.0473 91.5616 72.5932 94.6174 66.6363 95.9256C64.4749 96.4038 62.2437 96.65 59.981 96.65C59.384 96.65 58.7869 96.6324 58.1898 96.5972C57.6905 96.5691 57.1911 96.5269 56.6953 96.4706C52.9138 96.0697 49.2195 94.9726 45.8605 93.2355C45.3926 92.9964 44.9352 92.7432 44.4847 92.4794C39.2017 89.4166 35.0396 84.9507 32.3614 79.6795C31.8935 78.7617 31.471 77.8228 31.0974 76.8593C30.7901 76.0716 30.5143 75.2698 30.2699 74.454C30.2419 74.454 30.214 74.4575 30.1861 74.4611C29.4458 74.563 28.9116 74.9287 28.5345 75.516C28.7649 76.2474 29.0198 76.9683 29.3027 77.6786C29.7182 78.7336 30.1861 79.7639 30.7028 80.7626C30.9892 81.3076 31.286 81.8456 31.5967 82.3731C31.6631 82.4856 31.7224 82.5841 31.7748 82.6685C31.7992 82.7107 31.8237 82.7494 31.8446 82.7845C31.8865 82.8513 31.9145 82.9006 31.9284 82.9217C32.3893 83.6707 32.8782 84.3986 33.3985 85.1089C33.786 85.6399 34.1911 86.1568 34.6101 86.6632C34.7288 86.8109 34.851 86.9551 34.9767 87.0992C35.0954 87.2399 35.2177 87.3806 35.3434 87.5212C35.4516 87.6443 35.5668 87.7709 35.6786 87.894C36.0487 88.3019 36.4328 88.6992 36.8239 89.0896C36.974 89.2373 37.1241 89.3849 37.2778 89.5291C37.4279 89.6768 37.5816 89.8175 37.7387 89.9616C37.9517 90.1586 38.1647 90.352 38.3847 90.5383C38.4231 90.5735 38.4615 90.6087 38.5034 90.6438C38.7234 90.8337 38.9433 91.0201 39.1703 91.2029C39.8337 91.748 40.5181 92.2649 41.2234 92.7572C41.3806 92.8698 41.5412 92.9788 41.7018 93.0843C41.8415 93.1792 41.9811 93.2706 42.1243 93.3621C42.257 93.45 42.3897 93.5344 42.5224 93.6153C42.6795 93.7172 42.8366 93.8157 42.9972 93.9106C43.1544 94.0056 43.3115 94.1005 43.4686 94.1919C43.8073 94.3889 44.1495 94.5823 44.4952 94.7651C44.6488 94.846 44.806 94.9269 44.9596 95.0078C45.3821 95.2258 45.8081 95.4333 46.2411 95.6337C46.4296 95.7216 46.6182 95.806 46.8067 95.8904C46.915 95.9396 47.0232 95.9889 47.1349 96.0311C47.7041 96.2737 48.2767 96.4988 48.8599 96.7097C48.8878 96.7238 48.9157 96.7308 48.9472 96.7414C49.1497 96.8117 49.3487 96.882 49.5512 96.9524C49.7887 97.0297 50.0261 97.1071 50.2635 97.1809C50.8781 97.3708 51.4996 97.5431 52.1281 97.6979C52.4424 97.7752 52.7601 97.8491 53.0779 97.9159C53.3677 97.9792 53.6645 98.039 53.9578 98.0917C54.1987 98.1374 54.4397 98.1796 54.6806 98.2148C54.8691 98.25 55.0577 98.2781 55.2497 98.3062C55.4942 98.3414 55.7386 98.373 55.983 98.4047C56.4753 98.4645 56.9712 98.5137 57.467 98.5489C58.298 98.6122 59.136 98.6438 59.981 98.6438C60.3162 98.6438 60.648 98.6403 60.9797 98.6262C61.1263 98.6227 61.273 98.6192 61.4196 98.6122C61.7129 98.5981 62.0063 98.584 62.2961 98.5629C62.4427 98.5524 62.5894 98.5383 62.7325 98.5278C62.9385 98.5102 63.148 98.4926 63.3541 98.468C63.5286 98.4504 63.7032 98.4328 63.8743 98.4117C64.0489 98.3941 64.227 98.3695 64.4016 98.3449C64.8136 98.2886 65.2256 98.2253 65.6307 98.155C65.7913 98.1269 65.9519 98.0988 66.1125 98.0671C66.1509 98.0601 66.1859 98.053 66.2243 98.046C66.9191 97.9159 67.6035 97.7577 68.2809 97.5818C68.4695 97.5326 68.658 97.4799 68.8466 97.4271C68.9827 97.3884 69.1224 97.3497 69.2586 97.3075C69.3075 97.2935 69.3598 97.2794 69.4087 97.2653C71.8774 96.5269 74.2273 95.5036 76.4166 94.2306C76.9649 93.9106 77.5026 93.5801 78.0298 93.232C78.1032 93.1827 78.18 93.137 78.2533 93.0843C80.6416 91.4808 82.8065 89.5748 84.699 87.4192C84.9574 87.1274 85.2088 86.832 85.4568 86.5296C85.991 85.8755 86.5008 85.2039 86.9861 84.5076C87.5797 83.6601 88.1349 82.781 88.6482 81.8738H88.6447L88.6028 81.8913Z" fill="white"/>
<path d="M47.5121 15.4971V31.5708H70.3201V15.4971H47.5121ZM69.0142 30.2557H48.818V16.8087H69.0142V30.2557Z" fill="white"/>
<path d="M70.8438 32.0984H46.9883V14.9697H70.8438V32.0984ZM48.0358 31.0435H69.7963V16.0247H48.0358V31.0435ZM69.5379 30.7833H48.2942V16.2814H69.5379V30.7833ZM49.3417 29.7283H68.4904V17.3363H49.3417V29.7283Z" fill="white"/>
<path d="M58.9894 27.4955C61.1724 27.4955 62.942 25.7133 62.942 23.5148C62.942 21.3164 61.1724 19.5342 58.9894 19.5342C56.8064 19.5342 55.0367 21.3164 55.0367 23.5148C55.0367 25.7133 56.8064 27.4955 58.9894 27.4955Z" fill="white"/>
<path d="M99.2037 68.4585C98.4181 68.0963 97.5137 68.2616 96.9062 68.884L96.1659 69.6436C94.874 70.9728 93.4389 72.4497 91.913 73.7965C91.0261 74.5772 90.1077 75.3156 89.1755 75.9486C86.4868 77.7772 83.6515 78.7653 80.9454 77.5732L80.715 77.4712L80.268 77.2743C80.268 77.2743 79.6535 82.1024 80.9175 85.1723C81.0048 85.3763 81.0956 85.5697 81.2003 85.756C81.4482 86.2167 81.752 86.6176 82.1256 86.9305C82.1885 86.9833 82.2548 87.0325 82.3247 87.0782C82.9252 87.4756 83.7318 87.5811 84.6991 87.4193C85.6279 87.2716 86.7033 86.8778 87.894 86.2765C90.9877 84.7116 93.8753 83.2558 96.0996 80.9772C98.3692 78.6528 99.951 75.4774 100.37 70.4664C100.443 69.6084 99.9859 68.8207 99.2037 68.4585ZM93.1735 80.8998C91.4067 82.2747 89.3012 83.3402 87.0071 84.4971C87.0001 84.5007 86.9931 84.5042 86.9861 84.5077C82.2478 86.9024 84.7724 85.5661 83.6795 85.5661H83.676C83.4804 85.5661 83.1732 85.6083 82.6948 85.7209L82.4155 84.4233L81.3435 79.4686C83.6236 80.2352 85.8304 79.9046 87.9219 78.9657C88.9136 78.5191 89.8808 77.9389 90.8131 77.2708C93.3376 75.4668 95.6282 73.0405 97.5801 71.0361L98.3133 70.2801L98.3517 70.259C98.3762 70.2625 98.3971 70.2765 98.4006 70.2976C97.9467 75.7165 95.9948 78.7055 93.1735 80.8998Z" fill="white"/>
<path d="M81.347 94.9658C81.3994 94.9658 81.9301 94.3329 82.0279 94.2309C82.3351 93.9144 82.604 93.5557 82.9113 93.2357C83.5258 92.5957 84.1962 92.005 84.912 91.481C86.3157 90.4472 87.887 89.6489 89.5526 89.1426C92.5415 88.2318 95.8063 88.2634 98.7742 89.2375C101.32 90.0709 103.551 92.0753 103.746 94.9061C103.837 96.2107 103.457 97.5293 102.734 98.6124C102.36 99.1715 101.899 99.6463 101.369 100.058C101.037 100.314 100.321 101.077 99.8811 100.997C99.4656 100.919 100.035 100.093 100.157 99.7834C100.572 98.732 100.866 97.5821 100.604 96.4533C100.328 95.2718 99.4621 94.2942 98.446 93.6366C97.1645 92.8102 95.6072 92.325 94.1197 92.0401C90.4534 91.3403 87.3458 92.6168 84.0251 93.9953C83.2255 94.3258 82.2025 94.9166 81.3435 94.9658H81.347Z" fill="white"/>
<path d="M58.9894 2.03955L74.7546 13.1164V14.9344H43.2242V13.1164L58.9894 2.03955ZM58.9894 0C58.6367 0 58.2841 0.105494 57.9803 0.319999L41.7507 11.7239C41.4329 11.9454 41.2444 12.3112 41.2444 12.698V15.7397C41.2444 16.3973 41.7716 16.9283 42.4246 16.9283H75.5507C76.2036 16.9283 76.7309 16.3973 76.7309 15.7397V12.698C76.7309 12.3112 76.5423 11.9454 76.2246 11.7239L59.9985 0.319999C59.6947 0.109011 59.3421 0 58.9894 0Z" fill="white"/>
<path d="M81.5879 30.1396H36.2442C35.6192 30.1396 35.1862 30.7656 35.4027 31.3563L37.6619 37.9673C37.6933 38.0517 37.7352 38.1291 37.7841 38.1959C37.9517 38.4209 38.2136 38.5581 38.5034 38.5581L41.3561 40.5484L41.3456 40.5906L46.7997 40.5484H79.7792L79.7443 38.6776L82.4294 31.3563C82.6459 30.7656 82.2129 30.1396 81.5879 30.1396ZM78.0682 37.5067L77.6841 38.5581H40.1515L37.7945 32.13H80.0376L78.0682 37.5067Z" fill="white"/>
<path d="M105 90.5878C104.546 90.3346 104.099 89.7122 103.684 89.3325C103.184 88.8753 102.664 88.4428 102.123 88.0384C101.068 87.2542 99.93 86.5826 98.7219 86.0692C96.2986 85.0388 93.5646 84.6661 90.9981 85.2463C87.3807 86.0657 84.9958 88.6116 82.0279 90.5808C80.7639 91.4177 79.5173 92.2687 78.2533 93.0845C78.18 93.1373 78.1032 93.183 78.0298 93.2322C77.5026 93.5804 76.9648 93.9109 76.4166 94.2309C75.1282 94.994 73.7978 95.6973 72.3872 96.274C71.42 96.6713 70.4248 97.0054 69.4087 97.2656C69.3598 97.2797 69.3075 97.2937 69.2586 97.3078C69.1224 97.35 68.9827 97.3887 68.8466 97.4274C68.658 97.4801 68.4695 97.5329 68.2809 97.5821C67.6035 97.7579 66.9156 97.9126 66.2243 98.0463C66.1859 98.0533 66.1509 98.0603 66.1125 98.0674C65.9519 98.099 65.7913 98.1271 65.6307 98.1553C65.2256 98.2256 64.8136 98.2889 64.4016 98.3452C64.227 98.3698 64.0489 98.3944 63.8743 98.412C63.7032 98.4331 63.5286 98.4507 63.3541 98.4682C63.148 98.4929 62.9385 98.5104 62.7325 98.528C62.5894 98.5386 62.4427 98.5526 62.2961 98.5632C62.0062 98.5843 61.7129 98.5984 61.4196 98.6124C61.273 98.6194 61.1263 98.623 60.9797 98.6265C60.648 98.6405 60.3162 98.6441 59.981 98.6441C59.136 98.6441 58.298 98.6124 57.467 98.5491C56.9712 98.5104 56.4753 98.4612 55.983 98.4049C55.7386 98.3733 55.4942 98.3416 55.2497 98.3065C55.0577 98.2784 54.8691 98.2502 54.6806 98.2151C54.4397 98.1799 54.1987 98.1377 53.9578 98.092C53.6645 98.0392 53.3677 97.9795 53.0779 97.9162C52.7601 97.8493 52.4424 97.7755 52.1281 97.6981C51.4996 97.5434 50.8781 97.3711 50.2635 97.1812C50.0261 97.1074 49.7887 97.03 49.5512 96.9526C49.3487 96.8823 49.1497 96.812 48.9472 96.7417C48.9157 96.7311 48.8878 96.7241 48.8599 96.71C48.2767 96.5025 47.7006 96.2775 47.1349 96.0313C47.0232 95.9891 46.915 95.9399 46.8067 95.8907C46.6182 95.8063 46.4296 95.7219 46.2411 95.634C45.8081 95.437 45.3821 95.2296 44.9596 95.0116C44.8025 94.9307 44.6488 94.8498 44.4952 94.7654C44.1495 94.5825 43.8073 94.3891 43.4686 94.1922C43.3115 94.1008 43.1544 94.0058 42.9972 93.9109C42.8366 93.816 42.6795 93.7175 42.5224 93.6155C42.3897 93.5346 42.257 93.4502 42.1243 93.3623C41.9811 93.2709 41.8415 93.1795 41.7018 93.0845C41.5412 92.979 41.3806 92.87 41.2234 92.7575C40.5181 92.2652 39.8337 91.7483 39.1703 91.2032C38.9433 91.0204 38.7233 90.834 38.5034 90.6441C38.4615 90.6089 38.4231 90.5738 38.3847 90.5386C38.1647 90.3522 37.9517 90.1588 37.7387 89.9619C37.5816 89.8177 37.4279 89.6771 37.2778 89.5294C37.1241 89.3852 36.974 89.2375 36.8238 89.0898C36.4328 88.6995 36.0487 88.3021 35.6786 87.8942C35.5668 87.7711 35.4516 87.6446 35.3433 87.5215C35.2176 87.3808 35.0954 87.2402 34.9767 87.0995C34.851 86.9553 34.7288 86.8111 34.6101 86.6635C34.1911 86.1571 33.786 85.6402 33.3985 85.1092C32.8782 84.3989 32.3893 83.6709 31.9284 82.9219C31.9145 82.9008 31.8865 82.8516 31.8446 82.7848C31.8237 82.7496 31.7992 82.7109 31.7748 82.6688C31.7224 82.5844 31.6631 82.4859 31.5967 82.3734C31.2126 81.7439 30.6539 80.798 30.7028 80.7628C31.2371 80.369 31.7957 80.0173 32.3614 79.6798C33.2204 79.1663 34.0933 78.6811 34.9209 78.1184C36.7051 76.9017 38.465 75.685 40.141 74.3207C42.5259 72.3831 44.771 70.2662 46.8416 67.9945C49.3592 65.2341 51.6218 62.2381 53.5562 59.0381C53.5562 59.0381 54.7993 61.2288 55.5256 63.2965C56.1925 65.1954 49.9493 76.1176 38.1682 82.3417C38.9817 83.8222 40.0537 85.1971 41.1292 86.3294C43.0461 88.3549 45.3926 89.9689 47.952 91.0626C52.9801 93.2076 58.6856 93.4186 64.0384 92.332C64.9847 92.1386 65.924 91.9065 66.8528 91.6393C71.8774 90.201 76.3224 87.525 80.9175 85.1725C81.4133 84.9193 81.9126 84.6696 82.4154 84.4235C83.4734 83.9065 84.5419 83.4178 85.6313 82.9712C85.6313 82.9712 85.6313 82.9677 85.6383 82.9677C85.6418 82.9641 85.757 82.9219 85.757 82.9219C86.5252 82.609 87.3004 82.3171 88.0895 82.0534C88.2571 82.0006 88.4317 81.9444 88.6028 81.8916L88.6447 81.874H88.6482C90.0938 81.4204 91.6336 81.0371 93.1735 80.9C94.1547 80.8121 95.1393 80.8226 96.0996 80.9773C96.8852 81.1039 97.6569 81.329 98.3971 81.6771C99.1059 82.0112 99.7729 82.4367 100.366 82.9466C102.608 84.8701 103.942 87.8837 105 90.5878Z" fill="white"/>
<path d="M59.0418 69.8406C58.6158 67.4494 58.0047 65.1672 57.2191 63.0644C57.0166 62.5334 56.8071 62.0094 56.5941 61.5171C56.0319 60.216 55.3859 58.9009 54.6771 57.6139C52.376 53.4222 49.4604 49.5189 46.4226 45.5594C46.1049 45.148 45.7662 44.7366 45.4135 44.3322C44.4323 43.1893 43.1125 41.7757 41.5901 40.2495C41.1047 39.7607 40.6194 39.2825 40.148 38.8183C38.1472 36.8667 36.3455 35.221 35.8671 34.8271C34.7393 33.9058 33.395 33.3151 32.2252 32.8579C31.712 32.6575 31.1044 32.443 30.4165 32.4043H30.2594C28.7719 32.4043 27.6441 33.3362 27.5812 34.6232C27.5603 35.0346 27.6685 35.3511 27.7244 35.5093C28.0386 36.406 28.4297 37.2289 28.8103 38.0271L28.8941 38.203C29.1071 38.6495 29.3061 39.068 29.5017 39.5251C29.5575 39.6553 29.6134 39.7783 29.6658 39.9014L29.6553 39.912C29.5401 40.0034 29.4249 40.0948 29.3061 40.1898L29.2223 40.2566C28.9325 40.4851 28.6427 40.7067 28.3459 40.9317L28.2761 40.9845C27.693 41.4311 27.0889 41.8952 26.5058 42.3946C23.8311 44.6733 21.9351 46.4878 19.7388 48.675C19.1801 49.2341 18.6354 49.7862 18.1186 50.3172C17.4831 50.1203 16.7883 50.0218 16.048 50.0218C13.1324 50.0218 10.0876 51.6253 8.53031 52.5818C7.79705 53.0319 7.45835 53.8899 7.6923 54.7233C7.94021 55.6024 8.78521 56.2002 9.70703 56.1088C9.48007 56.3725 9.25659 56.6468 9.05058 56.9211C8.62808 57.4837 8.55825 58.2187 8.86552 58.8411C9.1693 59.4635 9.81178 59.8644 10.4997 59.8644C10.8034 59.8644 11.1072 59.787 11.3761 59.6393C11.5751 59.5303 11.7776 59.4248 11.9802 59.3299C11.6449 59.9207 11.2643 60.4446 10.7825 60.9861C9.9305 61.9426 8.12876 63.613 6.38639 65.227L6.17688 65.4239C4.25294 67.2033 2.43723 68.8841 1.45955 69.9778L1.36527 70.0868C1.33734 70.1184 1.31289 70.1501 1.28147 70.1817C-0.293304 71.7993 -0.42599 74.3593 0.963721 76.1351L1.08244 76.2687C1.71444 76.9157 2.29756 77.6577 2.91211 78.4454L2.94354 78.4876C4.3088 80.2247 5.71947 82.0217 7.83895 83.0907L8.05544 83.1997C9.9305 84.1421 11.8684 85.1197 13.2686 86.7091C13.6317 87.1205 13.9425 87.5953 14.2393 88.0559C14.5466 88.5236 14.8608 89.0089 15.2379 89.4344C15.9118 90.1939 16.7254 91.0766 17.6333 91.8783C17.7171 91.9522 17.8044 92.0295 17.8952 92.1139C18.5865 92.7399 19.442 93.517 20.3848 93.517C20.9085 93.517 21.3275 93.3166 21.5266 93.2216C22.1621 92.9192 22.7347 92.3108 23.6006 91.3473L23.6391 91.3051C23.8451 91.0766 24.1908 90.6933 24.2955 90.6089C24.5504 90.4049 24.8228 90.1799 25.144 89.9056C25.3151 90.0955 25.4792 90.2607 25.6259 90.3979C25.9576 90.7214 26.394 90.9007 26.8584 90.9007C27.2321 90.9007 27.5812 90.7882 27.878 90.5772C28.3843 90.8796 28.9255 91.1645 29.4877 91.4212C29.7321 91.5337 29.987 91.5865 30.2489 91.5865C30.9647 91.5865 31.6212 91.1575 31.918 90.4964C32.2113 89.8353 32.096 89.0581 31.6177 88.5131C29.5436 86.1465 29.4982 84.6274 29.575 84.0858C29.5855 83.9979 29.589 83.9206 29.589 83.8713C29.6483 83.2489 29.6309 82.5632 29.5366 81.7685C29.3655 80.3021 29.2538 79.1487 29.4214 78.0551C29.6483 78.8146 30.0883 79.8801 30.5387 80.608L30.6505 80.7909C31.8237 82.6828 32.7176 84.0753 34.432 86.1465C35.5843 87.5425 36.775 88.9667 37.5571 89.7157C38.5662 90.6862 39.8477 91.7447 41.3666 92.8594L41.4504 92.9227C43.3464 94.3504 45.3053 95.4053 47.4422 96.1508C50.2496 97.1319 52.4075 97.7086 54.6596 98.0814C54.7015 98.0884 54.8307 98.1271 54.9285 98.1587C55.3335 98.2783 55.8364 98.426 56.3392 98.426C57.0934 98.426 57.7254 98.0814 58.0746 97.4836C58.1479 97.3605 58.2072 97.2374 58.2457 97.1179C58.291 96.9877 58.326 96.8365 58.3714 96.6291C58.4412 96.288 58.5145 95.8062 58.6053 95.124L58.6996 94.4067C58.7589 93.946 58.8113 93.4783 58.8602 92.972C58.9021 92.5289 58.9405 92.0858 58.9789 91.6498L58.9929 91.4775C59.0488 90.8199 59.1081 90.1447 59.1779 89.4836L59.1884 89.3957C59.6389 85.3271 59.8414 82.0111 59.8309 78.9659C59.8239 75.7307 59.562 72.6608 59.0488 69.8371L59.0418 69.8406ZM32.1345 76.0753C32.8642 75.4002 33.182 75.0802 33.182 74.834C33.182 74.8199 33.182 74.8059 33.182 74.7918C33.182 74.7918 33.182 74.7883 33.182 74.7848C33.168 74.7004 33.1121 74.6336 33.0353 74.5949C32.6547 74.412 32.2008 74.3065 31.6491 74.2714C31.6491 74.2714 31.6421 74.2714 31.6386 74.2714C31.6386 74.2714 31.6316 74.2714 31.6282 74.2714C31.2755 74.2503 30.9089 74.2327 30.5527 74.2573C30.4584 74.2643 30.3641 74.2714 30.2664 74.2819C30.2349 74.2819 30.2035 74.2854 30.1721 74.2889C30.1337 74.2925 30.0953 74.2995 30.0569 74.3065H30.0534C29.348 74.4331 28.7929 74.8094 28.3983 75.4212C28.325 75.5373 28.2516 75.6709 28.1713 75.8362C27.2984 77.7386 27.459 79.8344 27.7209 81.9935C27.8047 82.6863 27.8152 83.2665 27.7593 83.794V83.8326C27.6231 84.8243 27.7663 86.906 30.2524 89.7403C29.362 89.3324 27.6999 88.4673 26.6 87.2225L26.1845 86.7548L26.2963 87.3702C26.3836 87.8555 26.5267 88.3654 26.7188 88.8858C26.3905 88.5517 25.9227 88.0243 25.5421 87.4124L25.4373 87.2436L25.2837 87.3702C24.9659 87.6304 24.6552 87.8977 24.3444 88.1649C23.9603 88.4955 23.5622 88.8366 23.1607 89.1566C22.9407 89.3324 22.6195 89.6911 22.2459 90.106C21.7326 90.6757 21.0936 91.386 20.7549 91.5478C20.6012 91.6181 20.4825 91.6709 20.3883 91.6709C20.3324 91.6709 20.2591 91.6568 20.1578 91.5548C19.7248 91.1223 19.2953 90.6898 18.8659 90.2537C18.6354 90.0216 18.5062 89.9126 18.3421 89.7755C18.2269 89.6805 18.0977 89.5715 17.9021 89.3922C17.7345 89.241 17.5634 89.1003 17.3993 88.9667C17.0187 88.6537 16.6591 88.3583 16.4496 88.0137C14.3825 84.6414 13.0137 83.6357 8.66998 81.4414C6.91015 80.5553 5.62868 78.9201 4.38562 77.3377C3.75711 76.536 3.10765 75.7096 2.41279 74.9958C1.58874 73.9479 1.66556 72.4358 2.59785 71.4758C2.65023 71.423 2.69562 71.3668 2.74451 71.314L2.8318 71.2156C3.75711 70.1782 5.64963 68.427 7.48279 66.7321C9.31945 65.0336 11.219 63.2754 12.1547 62.2239C13.4502 60.7716 13.9949 59.4952 14.5221 58.2574C14.7002 57.8354 14.8853 57.4029 15.0983 56.9668L15.21 56.7383L14.9551 56.7136C14.9097 56.7101 14.8643 56.7101 14.8189 56.7101C13.541 56.7101 12.0884 57.1497 10.5171 58.0394C11.1736 57.1673 12.909 55.0996 14.8015 54.7479L15.636 54.5932L14.805 54.4068C13.2756 54.0587 11.4948 54.02 9.52546 54.2802C9.48007 54.2802 9.4661 54.2416 9.46261 54.231C9.44864 54.1853 9.48007 54.1677 9.49054 54.1607C10.8837 53.3062 13.5898 51.8679 16.055 51.8679C16.9629 51.8679 17.7625 52.0649 18.4364 52.4552L18.5551 52.5255L18.6494 52.4271C19.3756 51.6675 20.1543 50.8728 21.0342 49.9937C23.1956 47.8346 25.0637 46.0482 27.693 43.8117C28.2656 43.3229 28.8767 42.8552 29.4668 42.4051C29.7636 42.1766 30.0604 41.9515 30.3572 41.7194C30.5003 41.6069 30.647 41.4908 30.7901 41.3783C31.0869 41.1392 31.3872 40.9036 31.6875 40.675C31.883 40.5309 31.7608 40.2073 31.677 39.9964L31.6561 39.9436C31.5199 39.5533 31.3488 39.17 31.1777 38.7832C30.9612 38.2698 30.7203 37.7634 30.4864 37.2746C30.1232 36.5115 29.7461 35.7203 29.4598 34.908C29.4353 34.8377 29.4144 34.7744 29.4179 34.7252C29.4353 34.3841 29.9486 34.2575 30.2664 34.2575H30.3292C30.7552 34.2821 31.1777 34.4368 31.5723 34.5915C32.6582 35.017 33.793 35.5129 34.7218 36.2724C35.1059 36.5889 36.7785 38.1115 38.7443 40.0245C39.2122 40.4816 39.6941 40.9563 40.1759 41.4381C42.2326 43.5023 43.7829 45.1867 44.778 46.4456L44.8444 46.53C44.8898 46.5862 44.9352 46.6425 44.9771 46.6987C48.0463 50.6934 50.9898 54.6284 53.2664 58.8657C53.3153 58.9536 53.3642 59.0415 53.4096 59.1295L53.4445 59.1892C53.9822 60.209 54.4816 61.2429 54.9215 62.2661C55.0856 62.6459 55.2393 63.0292 55.3824 63.4055C55.4278 63.511 55.4697 63.62 55.5081 63.729C56.3741 66.0393 57.0166 68.5606 57.4251 71.2191C57.7987 73.6349 57.9908 76.2476 57.9977 78.9834C58.0047 81.997 57.8022 85.2427 57.3622 89.2023C57.2994 89.779 57.247 90.3557 57.1981 90.9289L57.1632 91.3051C57.1178 91.8572 57.0724 92.4023 57.0131 92.9544C56.9747 93.3623 56.9293 93.7702 56.8769 94.1746L56.8525 94.3715C56.8315 94.5473 56.8001 94.7864 56.7617 95.0431C56.6918 95.5601 56.608 96.1368 56.5312 96.4427C56.5207 96.4849 56.5138 96.5201 56.5033 96.5482C56.4963 96.5728 56.43 96.5904 56.3392 96.5904C56.1017 96.5904 55.7316 96.4849 55.4383 96.397C55.2497 96.3407 55.0821 96.295 54.9564 96.2739C52.823 95.9223 50.7559 95.3667 48.0393 94.4207C47.0092 94.0585 46.049 93.633 45.1062 93.1196L45.0643 93.0845H45.0399C44.2228 92.6308 43.4058 92.0999 42.5433 91.4563L42.4525 91.3895C40.6438 90.0638 39.4811 89.03 38.8211 88.3935C38.1053 87.7008 36.8483 86.2027 35.8357 84.9755C34.3133 83.1364 33.5137 81.9408 32.1833 79.7922L32.0891 79.6445C31.5443 78.7654 31.1114 77.4573 31.0904 77.2252C31.0904 77.2252 31.0939 77.1584 31.2371 76.979C31.4396 76.7294 31.7958 76.4023 32.1379 76.0823L32.1345 76.0753Z" fill="white"/>
</g>
<defs>
<clipPath id="clip0_444_54">
<rect width="105" height="101" fill="white"/>
</clipPath>
</defs>
</svg>
