<svg width="97" height="92" viewBox="0 0 97 92" fill="none" xmlns="http://www.w3.org/2000/svg">
<g id="&#208;&#155;&#208;&#190;&#208;&#179;&#208;&#190; &#209;&#135;&#208;&#177;" clip-path="url(#clip0_110_146)">
<path id="Vector" d="M75.3878 75.2381L74.5653 70.5679L68.4332 35.8077L68.3139 35.1222L62.4818 36.5412L42.0438 36.6309L41.8276 40.4842L41.7728 41.4964C41.6631 41.7238 41.5664 41.9576 41.4825 42.1947C41.547 42.2748 41.6115 42.3516 41.6696 42.4285C44.5179 46.0833 47.2178 49.6355 49.3403 53.5273L50.3661 52.5568L66.8655 36.9352L68.988 48.9084L54.3821 63.646L53.2015 64.8375C53.5692 67.1822 53.7273 69.5653 53.7337 71.9356C53.7402 75.0523 53.495 78.1657 53.1466 81.2631C53.0757 81.9038 53.0208 82.5412 52.9628 83.1754L54.4982 81.4906L71.4589 62.8676L73.5588 74.716C72.5492 76.2534 71.4331 77.6756 70.2493 78.9409L69.2558 79.9595L69.2106 80.0043C68.8719 80.331 68.5332 80.6449 68.1848 80.946C63.9592 84.6424 59.0722 86.5995 53.9692 86.6284H53.8595C53.4369 86.6284 53.0144 86.6155 52.5918 86.5867C52.5273 87.0544 52.4499 87.5925 52.3757 87.8744C52.366 87.9192 52.3563 87.9544 52.3467 87.9865C52.3112 88.0954 52.195 88.137 52.0402 88.137C51.6564 88.137 51.0306 87.8936 50.737 87.8455C48.4984 87.4804 46.4565 86.8846 44.3211 86.1511C43.3566 85.818 42.4502 85.4208 41.576 84.9499C41.7083 85.0364 41.8406 85.1197 41.976 85.2062V85.2286C42.3051 85.4528 42.6373 85.6354 42.976 85.7987C44.005 86.3785 45.063 86.875 46.1372 87.2818C48.5113 88.1947 50.9886 88.6752 53.5047 88.7168C53.624 88.72 53.7402 88.72 53.8595 88.72C55.9465 88.72 57.9981 88.4125 59.9883 87.8231C60.5206 87.695 61.0431 87.5477 61.5592 87.3779C64.4624 86.4394 67.1236 84.841 69.6461 82.3874L70.1622 82.2977L70.8235 81.2759C71.1815 80.8916 71.5331 80.5008 71.875 80.1036C72.8298 79.447 74.2943 78.9152 75.0136 78.1145C75.062 78.0632 75.104 78.0088 75.1459 77.9511C75.2878 77.7589 75.3298 77.5347 75.3298 77.2945C75.3265 76.6442 74.9911 75.8723 75.3427 75.3117L75.3878 75.2381Z" fill="#031A35"/>
<path id="Vector_2" d="M73.5072 35.2312C73.004 34.8564 72.9782 34.7187 72.4492 34.3823L71.8815 35.2728L70.2009 35.3561C71.1396 35.907 71.8686 36.2786 72.7331 36.9352C79.6135 42.1339 84.0649 50.3531 84.0649 59.5845C84.0649 62.8741 83.4843 66.122 82.3811 69.181C82.0457 70.1163 81.6618 71.0324 81.2231 71.9293C82.1392 71.5225 83.0327 70.994 83.894 70.3854C84.2875 69.3572 84.6294 68.3002 84.9101 67.2207C85.552 64.7831 85.8907 62.2206 85.8907 59.5845C85.8907 49.5971 81.0199 40.7405 73.5072 35.2312ZM81.8521 74.5943C81.6941 74.6423 81.5328 74.6936 81.3779 74.7416C80.6489 74.9819 79.9328 75.2477 79.2232 75.5328C79.2232 75.5328 79.1167 75.5712 79.1135 75.5744C79.1103 75.5744 79.1103 75.5776 79.1071 75.5776C78.62 76.2951 78.0942 76.9934 77.5361 77.6661C77.4587 77.759 77.3813 77.8519 77.3039 77.9416H77.3007C76.9007 78.4156 76.4846 78.8737 76.0523 79.3189C72.1008 83.4029 67.0623 86.1864 61.5592 87.3779C59.5625 87.8136 57.5013 88.0378 55.4111 88.0378C54.8595 88.0378 54.3079 88.0218 53.7563 87.9897C53.295 87.9641 52.8337 87.9257 52.3757 87.8744C48.8822 87.5093 45.4695 86.5099 42.3663 84.9276C41.9341 84.7097 41.5115 84.4791 41.0954 84.2389C36.2149 81.449 32.3699 77.381 29.8958 72.5795C29.4635 71.7435 29.0732 70.8883 28.7281 70.0106C28.4442 69.2931 28.1894 68.5628 27.9636 67.8197C27.9378 67.8197 27.912 67.8229 27.8862 67.8261C27.2023 67.919 26.7088 68.2521 26.3604 68.787C26.5733 69.4533 26.8088 70.1099 27.0701 70.757C27.4539 71.7179 27.8862 72.6564 28.3636 73.5661C28.6281 74.0626 28.9023 74.5527 29.1893 75.0331C29.2506 75.1356 29.3055 75.2253 29.3539 75.3022C29.3764 75.3406 29.399 75.3759 29.4184 75.4079C29.4571 75.4687 29.4829 75.5136 29.4958 75.5328C29.9216 76.2151 30.3732 76.8781 30.8538 77.5251C31.2119 78.0088 31.586 78.4797 31.9731 78.9409C32.0828 79.0755 32.1957 79.2068 32.3118 79.3381C32.4215 79.4662 32.5344 79.5944 32.6505 79.7225C32.7505 79.8346 32.857 79.9499 32.9602 80.062C33.3021 80.4336 33.6569 80.7955 34.0182 81.1511C34.1569 81.2856 34.2956 81.4201 34.4376 81.5515C34.5763 81.686 34.7182 81.8141 34.8634 81.9454C35.0601 82.1248 35.2569 82.301 35.4601 82.4708C35.4956 82.5028 35.5311 82.5348 35.5698 82.5668C35.773 82.7398 35.9762 82.9096 36.1859 83.0761C36.7988 83.5726 37.431 84.0435 38.0826 84.4919C38.2278 84.5944 38.3761 84.6937 38.5245 84.7898C38.6536 84.8763 38.7826 84.9596 38.9148 85.0429C39.0374 85.1229 39.16 85.1998 39.2826 85.2735C39.4277 85.3664 39.5729 85.4561 39.7213 85.5426C39.8664 85.629 40.0116 85.7155 40.1567 85.7988C40.4696 85.9782 40.7857 86.1543 41.1051 86.3209C41.247 86.3946 41.3922 86.4683 41.5341 86.5419C41.9244 86.7405 42.3179 86.9295 42.7179 87.1121C42.8921 87.1922 43.0663 87.269 43.2405 87.3459C43.3405 87.3908 43.4405 87.4356 43.5437 87.474C44.0695 87.695 44.5985 87.9 45.1372 88.0922C45.163 88.105 45.1888 88.1115 45.2178 88.1211C45.4049 88.1851 45.5888 88.2492 45.7759 88.3132C45.9952 88.3837 46.2146 88.4542 46.4339 88.5215C47.0017 88.6944 47.5758 88.8514 48.1565 88.9923C48.4468 89.0628 48.7403 89.1301 49.0339 89.1909C49.3016 89.2486 49.5758 89.303 49.8467 89.3511C50.0693 89.3927 50.2919 89.4311 50.5145 89.4632C50.6886 89.4952 50.8628 89.5208 51.0402 89.5465C51.266 89.5785 51.4918 89.6073 51.7176 89.6361C52.1725 89.6906 52.6305 89.7354 53.0886 89.7675C53.8563 89.8251 54.6304 89.8539 55.4111 89.8539C55.7207 89.8539 56.0272 89.8507 56.3336 89.8379C56.4691 89.8347 56.6046 89.8315 56.74 89.8251C57.011 89.8123 57.282 89.7995 57.5497 89.7803C57.6852 89.7707 57.8207 89.7579 57.9529 89.7482C58.1432 89.7322 58.3368 89.7162 58.5271 89.6938C58.6884 89.6778 58.8497 89.6618 59.0077 89.6425C59.169 89.6265 59.3335 89.6041 59.4948 89.5817C59.8754 89.5304 60.2561 89.4728 60.6302 89.4087C60.7786 89.3831 60.927 89.3575 61.0754 89.3286C61.1109 89.3222 61.1431 89.3158 61.1786 89.3094C61.8205 89.1909 62.4528 89.0468 63.0785 88.8866C63.2527 88.8418 63.4269 88.7937 63.6011 88.7457C63.7269 88.7104 63.8559 88.6752 63.9817 88.6368C64.0269 88.624 64.0753 88.6111 64.1204 88.5983C66.401 87.9257 68.5719 86.9936 70.5944 85.834C71.1009 85.5426 71.5976 85.2415 72.0847 84.9244C72.1524 84.8795 72.2234 84.8379 72.2911 84.7898C74.4975 83.3292 76.4975 81.5931 78.2458 79.6296C78.4845 79.3637 78.7167 79.0947 78.9458 78.8192C79.4393 78.2234 79.9102 77.6116 80.3586 76.9774C80.907 76.2055 81.4199 75.4047 81.8941 74.5783H81.8908L81.8521 74.5943Z" fill="#031A35"/>
<g id="Group">
<path id="Vector_3" d="M43.8921 14.1161V28.7575H64.9624V14.1161H43.8921ZM63.7559 27.5596H45.0985V15.3109H63.7559V27.5596Z" fill="#031A35"/>
<path id="Vector_4" d="M65.4462 29.238H43.4082V13.6356H65.4462V29.238ZM44.3759 28.2771H64.4785V14.5966H44.3759V28.2771ZM64.2398 28.04H44.6146V14.8304H64.2398V28.04ZM45.5824 27.0791H63.2721V15.7913H45.5824V27.0791Z" fill="#031A35"/>
</g>
<path id="Vector_5" d="M54.495 25.0452C56.5116 25.0452 58.1465 23.4218 58.1465 21.4193C58.1465 19.4167 56.5116 17.7933 54.495 17.7933C52.4783 17.7933 50.8435 19.4167 50.8435 21.4193C50.8435 23.4218 52.4783 25.0452 54.495 25.0452Z" fill="#031A35"/>
<path id="Vector_6" d="M91.6453 62.3584C90.9195 62.0285 90.0841 62.179 89.5228 62.746L88.839 63.4378C87.6455 64.6486 86.3197 65.9939 84.9101 67.2207C84.0908 67.9318 83.2424 68.6045 82.3811 69.181C79.8973 70.8467 77.2781 71.7467 74.7782 70.6609L74.5653 70.568L74.1524 70.3886C74.1524 70.3886 73.5846 74.7865 74.7524 77.5828C74.833 77.7686 74.9169 77.9448 75.0136 78.1145C75.2427 78.5341 75.5233 78.8993 75.8684 79.1844C75.9265 79.2324 75.9878 79.2773 76.0523 79.3189C76.6071 79.6809 77.3523 79.777 78.2458 79.6296C79.1038 79.4951 80.0973 79.1363 81.1973 78.5886C84.0553 77.1632 86.7229 75.8371 88.7777 73.7615C90.8744 71.6442 92.3356 68.7518 92.7227 64.1874C92.7905 63.4058 92.3679 62.6883 91.6453 62.3584ZM86.0746 73.691C84.4423 74.9434 82.4973 75.914 80.378 76.9678L80.3586 76.9774C75.9813 79.1588 78.3135 77.9416 77.3039 77.9416H77.3007C77.12 77.9416 76.8362 77.98 76.3942 78.0825L76.1362 76.9006L75.1459 72.3874C77.2523 73.0856 79.2909 72.7845 81.2231 71.9293C82.1392 71.5225 83.0327 70.994 83.894 70.3854C86.2262 68.7422 88.3422 66.5321 90.1454 64.7063L90.8228 64.0176L90.8583 63.9984C90.8808 64.0016 90.9002 64.0144 90.9034 64.0336C90.4841 68.9696 88.6809 71.6923 86.0746 73.691Z" fill="#031A35"/>
<path id="Vector_7" d="M75.1491 86.5035C75.1975 86.5035 75.6878 85.9269 75.7781 85.834C76.062 85.5457 76.3104 85.219 76.5942 84.9275C77.1619 84.3446 77.7813 83.8064 78.4425 83.3292C79.7393 82.3874 81.1908 81.6603 82.7295 81.1991C85.4907 80.3695 88.5067 80.3983 91.2486 81.2856C93.6001 82.0447 95.6613 83.8705 95.842 86.449C95.9258 87.6374 95.5742 88.8385 94.9065 89.8251C94.5614 90.3344 94.1356 90.7668 93.6453 91.1416C93.3388 91.3754 92.6776 92.0705 92.2711 91.9968C91.8873 91.9263 92.4131 91.1736 92.526 90.8917C92.9098 89.934 93.1808 88.8866 92.9388 87.8584C92.684 86.7821 91.884 85.8917 90.9454 85.2927C89.7615 84.5399 88.3229 84.0979 86.9487 83.8385C83.5617 83.201 80.6909 84.3638 77.6232 85.6194C76.8845 85.9205 75.9394 86.4586 75.1459 86.5035H75.1491Z" fill="#031A35"/>
<path id="Vector_8" d="M54.495 1.85781L69.059 11.9476V13.6036H39.9309V11.9476L54.495 1.85781ZM54.495 0C54.1692 0 53.8434 0.0960936 53.5627 0.291484L38.5697 10.6792C38.2761 10.881 38.102 11.2141 38.102 11.5665V14.3372C38.102 14.9361 38.589 15.4198 39.1922 15.4198H69.7945C70.3977 15.4198 70.8847 14.9361 70.8847 14.3372V11.5665C70.8847 11.2141 70.7106 10.881 70.417 10.6792L55.4272 0.291484C55.1466 0.0992967 54.8208 0 54.495 0Z" fill="#031A35"/>
<path id="Vector_9" d="M75.3717 27.454H33.4828C32.9054 27.454 32.5054 28.0241 32.7054 28.5623L34.7924 34.5841C34.8214 34.661 34.8601 34.7315 34.9053 34.7923C35.0601 34.9973 35.3021 35.1222 35.5698 35.1222L38.2052 36.9352L38.1955 36.9737L43.234 36.9352H73.7008L73.6685 35.2312L76.1491 28.5623C76.3491 28.0241 75.9491 27.454 75.3717 27.454ZM72.1202 34.1645L71.7654 35.1222H37.0923L34.915 29.2669H73.9395L72.1202 34.1645Z" fill="#031A35"/>
<path id="Vector_10" d="M97 82.5156C96.5807 82.285 96.1678 81.718 95.7839 81.3721C95.3226 80.9557 94.842 80.5617 94.342 80.1933C93.3679 79.4791 92.3163 78.8673 91.2002 78.3996C88.9616 77.4611 86.4358 77.1216 84.0649 77.6501C80.7231 78.3964 78.52 80.7155 75.7781 82.5092C74.6104 83.2715 73.4588 84.0467 72.2911 84.7898C72.2234 84.8379 72.1524 84.8795 72.0847 84.9244C71.5976 85.2415 71.1009 85.5426 70.5944 85.834C69.4041 86.5291 68.1751 87.1697 66.872 87.6951C65.9784 88.057 65.0591 88.3613 64.1204 88.5983C64.0753 88.6111 64.0269 88.624 63.9817 88.6368C63.8559 88.6752 63.7269 88.7104 63.6011 88.7457C63.4269 88.7937 63.2527 88.8418 63.0785 88.8866C62.4528 89.0468 61.8173 89.1877 61.1786 89.3094C61.1431 89.3158 61.1109 89.3222 61.0754 89.3286C60.927 89.3575 60.7786 89.3831 60.6302 89.4087C60.2561 89.4728 59.8754 89.5304 59.4948 89.5817C59.3335 89.6041 59.169 89.6265 59.0077 89.6425C58.8496 89.6618 58.6884 89.6778 58.5271 89.6938C58.3368 89.7162 58.1432 89.7322 57.9529 89.7483C57.8207 89.7579 57.6852 89.7707 57.5497 89.7803C57.282 89.7995 57.011 89.8123 56.74 89.8251C56.6046 89.8315 56.4691 89.8347 56.3336 89.8379C56.0272 89.8508 55.7207 89.854 55.4111 89.854C54.6304 89.854 53.8563 89.8251 53.0886 89.7675C52.6305 89.7322 52.1725 89.6874 51.7176 89.6361C51.4918 89.6073 51.266 89.5785 51.0402 89.5465C50.8628 89.5208 50.6886 89.4952 50.5144 89.4632C50.2919 89.4311 50.0693 89.3927 49.8467 89.3511C49.5758 89.303 49.3016 89.2486 49.0338 89.1909C48.7403 89.1301 48.4468 89.0628 48.1565 88.9923C47.5758 88.8514 47.0017 88.6944 46.4339 88.5215C46.2146 88.4542 45.9952 88.3837 45.7759 88.3133C45.5888 88.2492 45.4049 88.1851 45.2178 88.1211C45.1888 88.1115 45.163 88.1051 45.1372 88.0922C44.5985 87.9033 44.0663 87.6983 43.5437 87.474C43.4405 87.4356 43.3405 87.3908 43.2405 87.3459C43.0663 87.269 42.8921 87.1922 42.7179 87.1121C42.3179 86.9327 41.9244 86.7437 41.5341 86.5451C41.3889 86.4715 41.247 86.3978 41.1051 86.3209C40.7857 86.1544 40.4696 85.9782 40.1567 85.7988C40.0116 85.7155 39.8664 85.629 39.7213 85.5426C39.5729 85.4561 39.4277 85.3664 39.2826 85.2735C39.16 85.1998 39.0374 85.123 38.9148 85.0429C38.7826 84.9596 38.6535 84.8763 38.5245 84.7898C38.3761 84.6937 38.2278 84.5944 38.0826 84.4919C37.431 84.0435 36.7988 83.5726 36.1859 83.0762C35.9762 82.9096 35.773 82.7398 35.5698 82.5669C35.5311 82.5348 35.4956 82.5028 35.4601 82.4708C35.2569 82.301 35.0601 82.1248 34.8634 81.9455C34.7182 81.8141 34.5763 81.686 34.4376 81.5515C34.2956 81.4201 34.1569 81.2856 34.0182 81.1511C33.6569 80.7955 33.3021 80.4336 32.9602 80.062C32.857 79.9499 32.7505 79.8346 32.6505 79.7225C32.5344 79.5944 32.4215 79.4662 32.3118 79.3381C32.1957 79.2068 32.0828 79.0755 31.9731 78.9409C31.586 78.4797 31.2119 78.0088 30.8538 77.5252C30.3732 76.8781 29.9216 76.2151 29.4958 75.5328C29.4829 75.5136 29.4571 75.4687 29.4184 75.4079C29.399 75.3759 29.3764 75.3406 29.3539 75.3022C29.3055 75.2253 29.2506 75.1356 29.1893 75.0331C28.8345 74.4598 28.3184 73.5981 28.3636 73.5661C28.8571 73.2073 29.3732 72.887 29.8958 72.5795C30.6893 72.1119 31.4957 71.6698 32.2602 71.1573C33.9085 70.0491 35.5343 68.9408 37.0826 67.698C39.2858 65.9331 41.3599 64.0048 43.2727 61.9356C45.5985 59.4211 47.6887 56.6921 49.4758 53.7772C49.4758 53.7772 50.6241 55.7728 51.2951 57.6562C51.9112 59.3859 46.1436 69.3348 35.2601 75.0043C36.0117 76.3528 37.002 77.6052 37.9955 78.6366C39.7664 80.4816 41.9341 81.9519 44.2985 82.948C48.9435 84.9019 54.2143 85.0941 59.1593 84.1044C60.0335 83.9282 60.9012 83.7168 61.7592 83.4733C66.401 82.1633 70.5073 79.7257 74.7523 77.5828C75.2104 77.3522 75.6717 77.1248 76.1362 76.9005C77.1136 76.4297 78.1006 75.9844 79.107 75.5777C79.107 75.5777 79.107 75.5745 79.1135 75.5745C79.1167 75.5712 79.2232 75.5328 79.2232 75.5328C79.9328 75.2477 80.6489 74.9819 81.3779 74.7416C81.5328 74.6936 81.694 74.6423 81.8521 74.5943L81.8908 74.5783H81.894C83.2295 74.1651 84.652 73.8159 86.0745 73.691C86.981 73.6109 87.8906 73.6205 88.7777 73.7615C89.5035 73.8768 90.2163 74.0818 90.9002 74.3989C91.555 74.7032 92.1711 75.0908 92.7195 75.5552C94.7904 77.3073 96.0226 80.0524 97 82.5156Z" fill="#031A35"/>
<path id="Vector_11" d="M54.5433 63.6171C54.1498 61.439 53.5853 59.3602 52.8595 57.4447C52.6724 56.9611 52.4789 56.4838 52.2821 56.0354C51.7628 54.8502 51.166 53.6522 50.5112 52.4799C48.3855 48.6618 45.692 45.1063 42.8857 41.4996C42.5921 41.1248 42.2792 40.7501 41.9534 40.3817C41.047 39.3407 39.8277 38.053 38.4213 36.6629C37.9729 36.2176 37.5246 35.782 37.0891 35.3592C35.2408 33.5815 33.5763 32.0824 33.1344 31.7237C32.0925 30.8845 30.8506 30.3463 29.77 29.9299C29.2958 29.7473 28.7345 29.552 28.0991 29.5167H27.9539C26.5798 29.5167 25.5379 30.3655 25.4798 31.5379C25.4604 31.9127 25.5604 32.2009 25.612 32.3451C25.9024 33.1619 26.2636 33.9114 26.6152 34.6385L26.6927 34.7987C26.8894 35.2055 27.0733 35.5866 27.2539 36.003C27.3055 36.1216 27.3571 36.2337 27.4055 36.3458L27.3959 36.3554C27.2894 36.4387 27.183 36.5219 27.0733 36.6084L26.9959 36.6693C26.7281 36.8775 26.4604 37.0793 26.1862 37.2843L26.1217 37.3323C25.583 37.7391 25.025 38.1619 24.4863 38.6168C22.0154 40.6924 20.2638 42.3452 18.2349 44.3376C17.7188 44.8469 17.2156 45.3497 16.7381 45.8334C16.1511 45.654 15.5092 45.5644 14.8253 45.5644C12.1318 45.5644 9.31904 47.025 7.88038 47.8962C7.20298 48.3062 6.89009 49.0878 7.10621 49.8469C7.33523 50.6477 8.11585 51.1922 8.96744 51.109C8.75777 51.3492 8.55132 51.599 8.36101 51.8489C7.9707 52.3614 7.90618 53.0308 8.19004 53.5978C8.47068 54.1647 9.06421 54.5299 9.69967 54.5299C9.98031 54.5299 10.2609 54.4594 10.5093 54.3249C10.6932 54.2256 10.8803 54.1295 11.0674 54.043C10.7577 54.5811 10.4061 55.0584 9.96095 55.5517C9.17388 56.4229 7.50942 57.9444 5.8998 59.4146L5.70626 59.594C3.9289 61.2148 2.25153 62.7459 1.34834 63.7421L1.26124 63.8414C1.23544 63.8702 1.21286 63.899 1.18383 63.9278C-0.270965 65.4013 -0.393542 67.7331 0.890287 69.3507L0.99996 69.4724C1.58381 70.0618 2.1225 70.7377 2.69023 71.4552L2.71926 71.4936C3.98051 73.0759 5.28369 74.7127 7.24169 75.6865L7.44168 75.7858C9.17388 76.6442 10.9641 77.5347 12.2577 78.9825C12.5931 79.3573 12.8802 79.7897 13.1544 80.2093C13.4383 80.6353 13.7286 81.0773 14.0769 81.4649C14.6995 82.1568 15.4511 82.9608 16.2898 83.6911C16.3672 83.7584 16.4478 83.8288 16.5317 83.9057C17.1704 84.4759 17.9607 85.1837 18.8316 85.1837C19.3155 85.1837 19.7026 85.0012 19.8864 84.9147C20.4735 84.6392 21.0025 84.0851 21.8025 83.2074L21.838 83.169C22.0283 82.9608 22.3476 82.6116 22.4444 82.5348C22.6799 82.349 22.9315 82.144 23.2283 81.8941C23.3863 82.0671 23.5379 82.2177 23.6734 82.3426C23.9798 82.6373 24.3831 82.8006 24.8121 82.8006C25.1572 82.8006 25.4798 82.6981 25.754 82.5059C26.2217 82.7814 26.7217 83.0409 27.241 83.2747C27.4668 83.3772 27.7023 83.4252 27.9442 83.4252C28.6055 83.4252 29.2119 83.0345 29.4861 82.4323C29.7571 81.8301 29.6506 81.1222 29.2087 80.6257C27.2926 78.47 27.2507 77.0863 27.3217 76.593C27.3313 76.5129 27.3346 76.4424 27.3346 76.3976C27.3894 75.8306 27.3733 75.206 27.2862 74.4821C27.1281 73.1464 27.0249 72.0958 27.1797 71.0996C27.3894 71.7915 27.7958 72.762 28.212 73.4251L28.3152 73.5917C29.399 75.3149 30.2248 76.5834 31.8086 78.47C32.8731 79.7416 33.9731 81.0389 34.6956 81.7212C35.6278 82.6052 36.8117 83.5694 38.2149 84.5848L38.2923 84.6424C40.0438 85.9429 41.8534 86.9038 43.8276 87.5829C46.421 88.4765 48.4145 89.0019 50.4951 89.3414C50.5338 89.3478 50.6531 89.383 50.7435 89.4119C51.1176 89.5208 51.5822 89.6553 52.0467 89.6553C52.7434 89.6553 53.3273 89.3414 53.6498 88.7969C53.7176 88.6848 53.7724 88.5726 53.8079 88.4637C53.8498 88.3452 53.8821 88.2075 53.924 88.0185C53.9885 87.7078 54.0563 87.269 54.1401 86.6476L54.2272 85.9941C54.2821 85.5745 54.3304 85.1485 54.3756 84.6873C54.4143 84.2837 54.4498 83.8801 54.4853 83.4829L54.4982 83.3259C54.5498 82.727 54.6046 82.1119 54.6691 81.5098L54.6788 81.4297C55.0949 77.7237 55.282 74.7031 55.2724 71.9292C55.2659 68.9824 55.024 66.186 54.5498 63.6139L54.5433 63.6171ZM29.6861 69.2963C30.3603 68.6813 30.6538 68.3898 30.6538 68.1656C30.6538 68.1528 30.6538 68.1399 30.6538 68.1271V68.1207C30.6377 68.0438 30.5893 67.983 30.5151 67.9478C30.1635 67.7812 29.7442 67.6851 29.2345 67.6531H29.2248C29.2248 67.6531 29.2184 67.6531 29.2152 67.6531C28.8894 67.6339 28.5507 67.6178 28.2216 67.6403C28.1345 67.6467 28.0474 67.6531 27.9571 67.6627C27.9281 67.6627 27.8991 67.6659 27.87 67.6691C27.8346 67.6723 27.7991 67.6787 27.7636 67.6851H27.7604C27.1088 67.8004 26.5959 68.1431 26.2314 68.7005C26.1636 68.8062 26.0959 68.9279 26.0217 69.0785C25.2153 70.8113 25.3637 72.7204 25.6056 74.6871C25.683 75.3181 25.6927 75.8466 25.6411 76.3271V76.3623C25.5153 77.2656 25.6475 79.1619 27.9442 81.7436C27.1217 81.372 25.5862 80.5841 24.5701 79.4501L24.1863 79.0241L24.2895 79.5847C24.3702 80.0267 24.5024 80.4912 24.6798 80.9652C24.3766 80.6609 23.9444 80.1805 23.5928 79.6231L23.496 79.4694L23.3541 79.5847C23.0605 79.8217 22.7734 80.0652 22.4863 80.3086C22.1315 80.6097 21.7638 80.9204 21.3928 81.2119C21.1896 81.372 20.8928 81.6987 20.5477 82.0767C20.0735 82.5956 19.4832 83.2426 19.1703 83.39C19.0284 83.4541 18.9187 83.5021 18.8316 83.5021C18.78 83.5021 18.7123 83.4893 18.6187 83.3964C18.2187 83.0024 17.822 82.6084 17.4252 82.2112C17.2123 81.9998 17.093 81.9005 16.9414 81.7756C16.8349 81.6891 16.7156 81.5898 16.5349 81.4265C16.3801 81.2887 16.222 81.1606 16.0704 81.0389C15.7188 80.7538 15.3866 80.4848 15.193 80.1709C13.2834 77.0991 12.0189 76.183 8.00618 74.1842C6.38043 73.377 5.1966 71.8876 4.04825 70.4462C3.46762 69.7159 2.86764 68.9631 2.22573 68.3129C1.46446 67.3584 1.53543 65.981 2.39669 65.1066C2.44507 65.0585 2.48701 65.0073 2.53217 64.9592L2.61281 64.8696C3.46762 63.9246 5.21595 62.3295 6.90944 60.7856C8.60616 59.2385 10.3609 57.6369 11.2254 56.6792C12.4222 55.3563 12.9254 54.1936 13.4125 53.0661C13.577 52.6817 13.7479 52.2877 13.9447 51.8905L14.0479 51.6823L13.8124 51.6599C13.7705 51.6567 13.7286 51.6567 13.6866 51.6567C12.506 51.6567 11.1641 52.0571 9.71257 52.8675C10.319 52.0731 11.9222 50.1897 13.6705 49.8693L14.4415 49.7284L13.6737 49.5586C12.2609 49.2415 10.6158 49.2063 8.79648 49.4433C8.75454 49.4433 8.74164 49.4081 8.73841 49.3985C8.72551 49.3568 8.75454 49.3408 8.76422 49.3344C10.0513 48.5561 12.5512 47.246 14.8285 47.246C15.6672 47.246 16.4059 47.4254 17.0285 47.7809L17.1381 47.845L17.2252 47.7553C17.8962 47.0634 18.6155 46.3395 19.4284 45.5387C21.4251 43.572 23.1508 41.9448 25.5798 39.9076C26.1088 39.4624 26.6733 39.0364 27.2184 38.6264C27.4926 38.4182 27.7668 38.2132 28.041 38.0018C28.1733 37.8993 28.3087 37.7936 28.441 37.6911C28.7152 37.4733 28.9926 37.2587 29.27 37.0505C29.4506 36.9191 29.3377 36.6244 29.2603 36.4323L29.241 36.3842C29.1152 36.0287 28.9571 35.6795 28.799 35.3272C28.599 34.8595 28.3765 34.3983 28.1604 33.953C27.8249 33.258 27.4765 32.5373 27.212 31.7973C27.1894 31.7333 27.1701 31.6756 27.1733 31.6308C27.1894 31.3201 27.6636 31.2048 27.9571 31.2048H28.0152C28.4087 31.2272 28.799 31.3681 29.1635 31.5091C30.1667 31.8966 31.2151 32.3483 32.0731 33.0402C32.4279 33.3284 33.9731 34.7154 35.7891 36.4579C36.2214 36.8743 36.6665 37.3067 37.1117 37.7455C39.0116 39.6258 40.4438 41.1601 41.3631 42.3068L41.4244 42.3837C41.4664 42.4349 41.5083 42.4862 41.547 42.5374C44.3824 46.1761 47.1017 49.7604 49.2048 53.6202C49.25 53.7003 49.2951 53.7804 49.3371 53.8604L49.3693 53.9149C49.8661 54.8438 50.3274 55.7855 50.7338 56.7176C50.8854 57.0636 51.0273 57.4127 51.1596 57.7554C51.2015 57.8515 51.2402 57.9508 51.2757 58.0501C52.0757 60.1546 52.6692 62.4512 53.0466 64.8728C53.3918 67.0733 53.5692 69.4532 53.5756 71.9452C53.5821 74.6903 53.395 77.6468 52.9886 81.2535C52.9305 81.7788 52.8821 82.3041 52.8369 82.8262L52.8047 83.169C52.7628 83.6719 52.7208 84.1684 52.666 84.6712C52.6305 85.0428 52.5886 85.4144 52.5402 85.7827L52.5176 85.9621C52.4982 86.1223 52.4692 86.3401 52.4337 86.5739C52.3692 87.0448 52.2918 87.5701 52.2208 87.8487C52.2112 87.8872 52.2047 87.9192 52.195 87.9448C52.1886 87.9673 52.1273 87.9833 52.0434 87.9833C51.8241 87.9833 51.4822 87.8872 51.2112 87.8071C51.037 87.7558 50.8822 87.7142 50.766 87.695C48.7951 87.3747 46.8855 86.8686 44.3759 86.0069C43.4244 85.677 42.5373 85.2894 41.6663 84.8218L41.6276 84.7898H41.6051C40.8502 84.3766 40.0954 83.8929 39.2987 83.3067L39.2148 83.2459C37.5439 82.0383 36.4697 81.0966 35.8601 80.5168C35.1988 79.8858 34.0376 78.5213 33.1021 77.4034C31.6957 75.7281 30.957 74.6391 29.728 72.682L29.6409 72.5474C29.1377 71.7467 28.7377 70.5551 28.7184 70.3437C28.7184 70.3437 28.7216 70.2828 28.8539 70.1195C29.041 69.892 29.37 69.5942 29.6861 69.3027V69.2963Z" fill="#031A35"/>
</g>
<defs>
<clipPath id="clip0_110_146">
<rect width="97" height="92" fill="white"/>
</clipPath>
</defs>
</svg>
